<?xml version="1.0" encoding="utf-8"?>
<!-- Generator: Adobe Illustrator 19.2.0, SVG Export Plug-In . SVG Version: 6.00 Build 0)  -->
<svg version="1.1" xmlns="http://www.w3.org/2000/svg" xmlns:xlink="http://www.w3.org/1999/xlink" x="0px" y="0px"
	 viewBox="0 0 289.2 375" style="enable-background:new 0 0 289.2 375;" xml:space="preserve">
<style type="text/css">
	.st0{display:none;}
	.st1{clip-path:url(#SVGID_2_);}
	.st2{opacity:0.2;}
	.st3{fill:url(#SVGID_3_);}
	.st4{fill:url(#SVGID_4_);}
	.st5{fill:url(#SVGID_5_);}
	.st6{fill:url(#SVGID_6_);}
	.st7{fill:url(#SVGID_7_);}
	.st8{fill:url(#SVGID_8_);}
	.st9{fill:url(#SVGID_9_);}
	.st10{fill:url(#SVGID_10_);}
	.st11{fill:url(#SVGID_11_);}
	.st12{fill:url(#SVGID_12_);}
	.st13{fill:url(#SVGID_13_);}
	.st14{fill:url(#SVGID_14_);}
	.st15{fill:url(#SVGID_15_);}
	.st16{fill:url(#SVGID_16_);}
	.st17{fill:url(#SVGID_17_);}
	.st18{fill:url(#SVGID_18_);}
	.st19{fill:url(#SVGID_19_);}
	.st20{fill:url(#SVGID_20_);}
	.st21{fill:url(#SVGID_21_);}
	.st22{fill:url(#SVGID_22_);}
	.st23{fill:url(#SVGID_23_);}
	.st24{fill:url(#SVGID_24_);}
	.st25{fill:url(#SVGID_25_);}
	.st26{fill:url(#SVGID_26_);}
	.st27{fill:url(#SVGID_27_);}
	.st28{fill:url(#SVGID_28_);}
	.st29{fill:url(#SVGID_29_);}
	.st30{fill:url(#SVGID_30_);}
	.st31{fill:url(#SVGID_31_);}
	.st32{fill:url(#SVGID_32_);}
	.st33{fill:url(#SVGID_33_);}
	.st34{fill:url(#SVGID_34_);}
	.st35{fill:url(#SVGID_35_);}
	.st36{fill:url(#SVGID_36_);}
	.st37{fill:url(#SVGID_37_);}
	.st38{fill:url(#SVGID_38_);}
	.st39{fill:url(#SVGID_39_);}
	.st40{fill:url(#SVGID_40_);}
	.st41{fill:url(#SVGID_41_);}
	.st42{fill:url(#SVGID_42_);}
	.st43{fill:url(#SVGID_43_);}
	.st44{fill:url(#SVGID_44_);}
	.st45{fill:url(#SVGID_45_);}
	.st46{fill:url(#SVGID_46_);}
	.st47{fill:url(#SVGID_47_);}
	.st48{fill:url(#SVGID_48_);}
	.st49{fill:url(#SVGID_49_);}
	.st50{fill:url(#SVGID_50_);}
	.st51{fill:url(#SVGID_51_);}
	.st52{fill:url(#SVGID_52_);}
	.st53{fill:url(#SVGID_53_);}
	.st54{fill:url(#SVGID_54_);}
	.st55{fill:url(#SVGID_55_);}
	.st56{fill:url(#SVGID_56_);}
	.st57{fill:url(#SVGID_57_);}
	.st58{fill:url(#SVGID_58_);}
	.st59{fill:url(#SVGID_59_);}
	.st60{fill:url(#SVGID_60_);}
	.st61{fill:url(#SVGID_61_);}
	.st62{fill:url(#SVGID_62_);}
	.st63{fill:url(#SVGID_63_);}
	.st64{fill:url(#SVGID_64_);}
	.st65{fill:url(#SVGID_65_);}
	.st66{fill:url(#SVGID_66_);}
	.st67{fill:url(#SVGID_67_);}
	.st68{fill:url(#SVGID_68_);}
	.st69{fill:url(#SVGID_69_);}
	.st70{fill:url(#SVGID_70_);}
	.st71{fill:url(#SVGID_71_);}
	.st72{fill:url(#SVGID_72_);}
	.st73{fill:url(#SVGID_73_);}
	.st74{fill:url(#SVGID_74_);}
	.st75{fill:url(#SVGID_75_);}
	.st76{fill:url(#SVGID_76_);}
	.st77{fill:url(#SVGID_77_);}
	.st78{fill:url(#SVGID_78_);}
	.st79{fill:url(#SVGID_79_);}
	.st80{fill:url(#SVGID_80_);}
	.st81{fill:url(#SVGID_81_);}
	.st82{fill:url(#SVGID_82_);}
	.st83{fill:url(#SVGID_83_);}
	.st84{fill:url(#SVGID_84_);}
	.st85{fill:url(#SVGID_85_);}
	.st86{fill:url(#SVGID_86_);}
	.st87{fill:url(#SVGID_87_);}
	.st88{fill:url(#SVGID_88_);}
	.st89{fill:url(#SVGID_89_);}
	.st90{fill:url(#SVGID_90_);}
	.st91{fill:url(#SVGID_91_);}
	.st92{fill:url(#SVGID_92_);}
	.st93{fill:url(#SVGID_93_);}
	.st94{fill:url(#SVGID_94_);}
	.st95{fill:url(#SVGID_95_);}
	.st96{fill:url(#SVGID_96_);}
	.st97{fill:url(#SVGID_97_);}
	.st98{fill:url(#SVGID_98_);}
	.st99{fill:url(#SVGID_99_);}
	.st100{fill:url(#SVGID_100_);}
	.st101{fill:url(#SVGID_101_);}
	.st102{fill:url(#SVGID_102_);}
	.st103{fill:url(#SVGID_103_);}
	.st104{fill:url(#SVGID_104_);}
	.st105{fill:url(#SVGID_105_);}
	.st106{fill:url(#SVGID_106_);}
	.st107{fill:url(#SVGID_107_);}
	.st108{fill:url(#SVGID_108_);}
	.st109{fill:url(#SVGID_109_);}
	.st110{fill:url(#SVGID_110_);}
	.st111{fill:url(#SVGID_111_);}
	.st112{fill:url(#SVGID_112_);}
	.st113{fill:url(#SVGID_113_);}
	.st114{fill:url(#SVGID_114_);}
	.st115{fill:#CFD1D2;}
	.st116{fill:url(#SVGID_115_);}
	.st117{fill:url(#SVGID_116_);}
	.st118{fill:url(#SVGID_117_);}
	.st119{fill:url(#SVGID_118_);}
	.st120{fill:url(#SVGID_119_);}
	.st121{fill:url(#SVGID_120_);}
	.st122{fill:url(#SVGID_121_);}
	.st123{fill:url(#SVGID_122_);}
	.st124{fill:url(#SVGID_123_);}
	.st125{fill:url(#SVGID_124_);}
	.st126{fill:url(#SVGID_125_);}
	.st127{fill:url(#SVGID_126_);}
	.st128{fill:url(#SVGID_127_);}
	.st129{fill:url(#SVGID_128_);}
	.st130{fill:url(#SVGID_129_);}
	.st131{fill:url(#SVGID_130_);}
	.st132{fill:url(#SVGID_131_);}
	.st133{fill:url(#SVGID_132_);}
	.st134{fill:url(#SVGID_133_);}
	.st135{fill:url(#SVGID_134_);}
	.st136{fill:url(#SVGID_135_);}
	.st137{fill:url(#SVGID_136_);}
	.st138{fill:url(#SVGID_137_);}
	.st139{fill:url(#SVGID_138_);}
	.st140{fill:url(#SVGID_139_);}
	.st141{fill:url(#SVGID_140_);}
	.st142{clip-path:url(#SVGID_142_);}
	.st143{fill:url(#SVGID_143_);}
	.st144{fill:url(#SVGID_144_);}
	.st145{fill:url(#SVGID_145_);}
	.st146{fill:url(#SVGID_146_);}
	.st147{opacity:0.1091;fill:#231F20;}
	.st148{fill:#ED1C24;}
	.st149{fill:#B3B3B3;}
	.st150{fill:#FBB03B;}
	.st151{fill:#1696A5;}
	.st152{fill:#791C1C;}
	.st153{fill:#FFE57F;}
	.st154{fill:#FF0000;}
	.st155{fill:#FF80AB;}
	.st156{fill:#263238;}
	.st157{fill:#880E4F;}
	.st158{fill:#B39DDB;}
	.st159{fill:#BA68C8;}
	.st160{fill:#212121;}
	.st161{fill:#00BFA5;}
	.st162{fill:#B3E5FC;}
	.st163{fill:#004D40;}
	.st164{fill:#4DB6AC;}
	.st165{fill:#FF8A65;}
	.st166{fill:#F4511E;}
	.st167{fill:#DD2C00;}
	.st168{fill:#FF8F00;}
	.st169{fill:#FF6E40;}
	.st170{fill:#9CCC65;}
	.st171{fill:#AEEA00;}
	.st172{fill:#76FF03;}
	.st173{fill:#F9A825;}
	.st174{fill:#FFFF00;}
	.st175{fill:#EC407A;}
	.st176{fill:#F48FB1;}
	.st177{fill:#AED581;}
	.st178{fill:#424242;}
	.st179{fill:#757575;}
	.st180{fill:#616161;}
	.st181{fill:#6D4C41;}
	.st182{fill:#8D6E63;}
	.st183{fill:#FFFFFF;}
	.st184{fill:#F2F2F2;}
	.st185{fill:url(#SVGID_147_);}
	.st186{fill:url(#SVGID_148_);}
	.st187{fill:url(#SVGID_149_);}
	.st188{fill:url(#SVGID_150_);}
	.st189{fill:url(#SVGID_151_);}
	.st190{fill:url(#SVGID_152_);}
	.st191{fill:url(#SVGID_153_);}
	.st192{fill:url(#SVGID_154_);}
	.st193{fill:url(#SVGID_155_);}
	.st194{fill:url(#SVGID_156_);}
	.st195{fill:url(#SVGID_157_);}
	.st196{fill:url(#SVGID_158_);}
	.st197{fill:url(#SVGID_159_);}
	.st198{fill:url(#SVGID_160_);}
	.st199{fill:url(#SVGID_161_);}
	.st200{fill:url(#SVGID_162_);}
	.st201{fill:url(#SVGID_163_);}
	.st202{fill:url(#SVGID_164_);}
	.st203{fill:url(#SVGID_165_);}
	.st204{fill:url(#SVGID_166_);}
	.st205{fill:url(#SVGID_167_);}
	.st206{fill:url(#SVGID_168_);}
	.st207{fill:url(#SVGID_169_);}
	.st208{fill:url(#SVGID_170_);}
	.st209{fill:url(#SVGID_171_);}
	.st210{fill:url(#SVGID_172_);}
	.st211{fill:url(#SVGID_173_);}
	.st212{fill:url(#SVGID_174_);}
	.st213{fill:url(#SVGID_175_);}
	.st214{fill:url(#SVGID_176_);}
	.st215{fill:url(#SVGID_177_);}
	.st216{fill:url(#SVGID_178_);}
	.st217{fill:url(#SVGID_179_);}
	.st218{fill:url(#SVGID_180_);}
	.st219{fill:url(#SVGID_181_);}
	.st220{fill:url(#SVGID_182_);}
	.st221{fill:url(#SVGID_183_);}
	.st222{fill:url(#SVGID_184_);}
	.st223{fill:url(#SVGID_185_);}
	.st224{fill:url(#SVGID_186_);}
	.st225{fill:url(#SVGID_187_);}
	.st226{fill:url(#SVGID_188_);}
	.st227{fill:url(#SVGID_189_);}
	.st228{fill:url(#SVGID_190_);}
	.st229{fill:url(#SVGID_191_);}
	.st230{fill:url(#SVGID_192_);}
	.st231{fill:url(#SVGID_193_);}
	.st232{fill:url(#SVGID_194_);}
	.st233{fill:url(#SVGID_195_);}
	.st234{fill:url(#SVGID_196_);}
	.st235{fill:url(#SVGID_197_);}
	.st236{fill:url(#SVGID_198_);}
	.st237{fill:url(#SVGID_199_);}
	.st238{fill:url(#SVGID_200_);}
	.st239{fill:url(#SVGID_201_);}
	.st240{fill:#F57F17;}
	.st241{fill:none;stroke:#C2185B;stroke-miterlimit:10;}
	.st242{fill:#00B0FF;}
	.st243{fill:#B2DFDB;}
	.st244{fill:#80DEEA;}
	.st245{fill:#B71C1C;}
	.st246{fill:#006064;}
	.st247{fill:#391C1C;}
	.st248{fill:#BF360C;}
	.st249{fill:none;stroke:#263238;stroke-width:5;stroke-miterlimit:10;}
	.st250{fill:none;stroke:#546E7A;stroke-width:6;stroke-miterlimit:10;}
	.st251{fill:none;stroke:#78909C;stroke-width:6;stroke-linecap:round;stroke-linejoin:round;stroke-miterlimit:10;}
	.st252{fill:none;stroke:#263238;stroke-width:7;stroke-miterlimit:10;}
	.st253{opacity:0.3;}
	.st254{fill:url(#SVGID_202_);}
	.st255{fill:url(#SVGID_203_);}
	.st256{fill:url(#SVGID_204_);}
	.st257{fill:url(#SVGID_205_);}
	.st258{fill:#D500F9;}
	.st259{opacity:0.2;fill:#FFFF00;}
	.st260{fill:#651FFF;}
	.st261{fill:#0091EA;}
	.st262{fill:#00E676;}
	.st263{opacity:0.5;}
	.st264{fill:url(#SVGID_206_);}
	.st265{fill:#E0E0E0;}
	.st266{fill:#455A64;}
	.st267{fill:#CCCCCC;}
	.st268{fill:#FFD54F;}
	.st269{fill:#EEEEEE;}
	.st270{fill:#78909C;}
	.st271{fill:#37474F;}
	.st272{fill:#90A4AE;}
	.st273{fill:#B0BEC5;}
	.st274{fill:#BDBDBD;}
	.st275{fill:#FF6F00;}
	.st276{fill:#FFF3E0;}
	.st277{fill:none;stroke:#E0E0E0;stroke-width:4;stroke-miterlimit:10;}
	.st278{fill:none;stroke:#FF6D00;stroke-width:12;stroke-linecap:round;stroke-linejoin:round;stroke-miterlimit:10;}
	.st279{fill:none;stroke:#006064;stroke-width:12;stroke-linecap:round;stroke-linejoin:round;stroke-miterlimit:10;}
	.st280{fill:none;stroke:#004D40;stroke-width:12;stroke-linecap:round;stroke-linejoin:round;stroke-miterlimit:10;}
	.st281{fill:none;stroke:#880E4F;stroke-width:12;stroke-linecap:round;stroke-linejoin:round;stroke-miterlimit:10;}
	.st282{fill:none;stroke:#E3F2FD;stroke-width:4;stroke-linecap:round;stroke-linejoin:round;stroke-miterlimit:10;}
	.st283{fill:none;stroke:#004D40;stroke-width:4;stroke-linecap:round;stroke-linejoin:round;stroke-miterlimit:10;}
	.st284{fill:none;stroke:#1B5E20;stroke-width:4;stroke-linecap:round;stroke-linejoin:round;stroke-miterlimit:10;}
	.st285{fill:#5D5D5D;}
	.st286{display:inline;}
	.st287{fill:none;stroke:#000000;stroke-width:0.5;stroke-miterlimit:10;}
</style>
<g id="Capa_1" class="st0">
</g>
<g id="Fondo">
	<g>
		<defs>
			<rect id="SVGID_1_" x="-1191.3" y="-401.8" width="1032.1" height="2564.3"/>
		</defs>
		<clipPath id="SVGID_2_">
			<use xlink:href="#SVGID_1_"  style="overflow:visible;"/>
		</clipPath>
		<g class="st1">
			
				<image style="overflow:visible;" width="3268" height="3166" xlink:href="49E4D294.png"  transform="matrix(1 0 0 1 -1663.3287 -1029.3333)">
			</image>
			<g>
				<g>
					<g class="st2">
						<g>
							
								<radialGradient id="SVGID_3_" cx="164.8604" cy="2618.1187" r="45.6651" gradientTransform="matrix(-1.917 0 0 -1.8526 509.7929 4865.0327)" gradientUnits="userSpaceOnUse">
								<stop  offset="0.2462" style="stop-color:#454545"/>
								<stop  offset="0.4111" style="stop-color:#414141"/>
								<stop  offset="0.5643" style="stop-color:#363636"/>
								<stop  offset="0.713" style="stop-color:#232323"/>
								<stop  offset="0.858" style="stop-color:#090909"/>
								<stop  offset="0.8995" style="stop-color:#000000"/>
							</radialGradient>
							<path class="st3" d="M106.2,14.8c0-46.7,39.2-84.6,87.5-84.6c48.3,0,87.5,37.9,87.5,84.6c0,46.7-39.2,84.6-87.5,84.6
								C145.4,99.4,106.2,61.5,106.2,14.8z"/>
						</g>
					</g>
					<g>
						<g>
							
								<radialGradient id="SVGID_4_" cx="128.9506" cy="1073.9419" r="9.2078" gradientTransform="matrix(-1.9126 0 0 -1.8526 289.3672 2344.4973)" gradientUnits="userSpaceOnUse">
								<stop  offset="0" style="stop-color:#FFFFFF"/>
								<stop  offset="7.035180e-002" style="stop-color:#FFFFFF"/>
								<stop  offset="7.721283e-002" style="stop-color:#F6F6F6"/>
								<stop  offset="0.1147" style="stop-color:#C8C8C8"/>
								<stop  offset="0.1569" style="stop-color:#9D9D9D"/>
								<stop  offset="0.2023" style="stop-color:#777777"/>
								<stop  offset="0.2517" style="stop-color:#575757"/>
								<stop  offset="0.3062" style="stop-color:#3B3B3B"/>
								<stop  offset="0.3678" style="stop-color:#252525"/>
								<stop  offset="0.4398" style="stop-color:#141414"/>
								<stop  offset="0.5288" style="stop-color:#090909"/>
								<stop  offset="0.6536" style="stop-color:#020202"/>
								<stop  offset="1" style="stop-color:#000000"/>
							</radialGradient>
							<path class="st4" d="M25.1,354.9c0-9.4,7.9-17.1,17.6-17.1s17.6,7.6,17.6,17.1c0,9.4-7.9,17-17.6,17S25.1,364.3,25.1,354.9z"
								/>
						</g>
						<g>
							
								<radialGradient id="SVGID_5_" cx="171.795" cy="1229.8748" r="22.1607" gradientTransform="matrix(-1.9126 0 0 -1.8526 289.3672 2344.4973)" gradientUnits="userSpaceOnUse">
								<stop  offset="0" style="stop-color:#FFFFFF"/>
								<stop  offset="7.035180e-002" style="stop-color:#FFFFFF"/>
								<stop  offset="7.721283e-002" style="stop-color:#F6F6F6"/>
								<stop  offset="0.1147" style="stop-color:#C8C8C8"/>
								<stop  offset="0.1569" style="stop-color:#9D9D9D"/>
								<stop  offset="0.2023" style="stop-color:#777777"/>
								<stop  offset="0.2517" style="stop-color:#575757"/>
								<stop  offset="0.3062" style="stop-color:#3B3B3B"/>
								<stop  offset="0.3678" style="stop-color:#252525"/>
								<stop  offset="0.4398" style="stop-color:#141414"/>
								<stop  offset="0.5288" style="stop-color:#090909"/>
								<stop  offset="0.6536" style="stop-color:#020202"/>
								<stop  offset="1" style="stop-color:#000000"/>
							</radialGradient>
							<path class="st5" d="M-81.6,66c0-22.7,19-41,42.4-41c23.4,0,42.4,18.4,42.4,41c0,22.7-19,41.1-42.4,41.1
								C-62.6,107.1-81.6,88.7-81.6,66z"/>
						</g>
						<g>
							
								<radialGradient id="SVGID_6_" cx="-23.715" cy="1163.7781" r="24.8718" gradientTransform="matrix(-1.9126 0 0 -1.8526 289.3672 2344.4973)" gradientUnits="userSpaceOnUse">
								<stop  offset="0" style="stop-color:#FFFFFF"/>
								<stop  offset="7.035180e-002" style="stop-color:#FFFFFF"/>
								<stop  offset="7.721283e-002" style="stop-color:#F6F6F6"/>
								<stop  offset="0.1147" style="stop-color:#C8C8C8"/>
								<stop  offset="0.1569" style="stop-color:#9D9D9D"/>
								<stop  offset="0.2023" style="stop-color:#777777"/>
								<stop  offset="0.2517" style="stop-color:#575757"/>
								<stop  offset="0.3062" style="stop-color:#3B3B3B"/>
								<stop  offset="0.3678" style="stop-color:#252525"/>
								<stop  offset="0.4398" style="stop-color:#141414"/>
								<stop  offset="0.5288" style="stop-color:#090909"/>
								<stop  offset="0.6536" style="stop-color:#020202"/>
								<stop  offset="1" style="stop-color:#000000"/>
							</radialGradient>
							<path class="st6" d="M287.1,188.5c0-25.5,21.3-46.1,47.6-46.1c26.3,0,47.6,20.6,47.6,46.1c0,25.4-21.3,46.1-47.6,46.1
								C308.5,234.6,287.1,213.9,287.1,188.5z"/>
						</g>
					</g>
				</g>
				<g>
					<g>
						<g>
							<path class="st115" d="M124.3,236.3c-2.6,2.6-6.8,2.6-9.4,0.2c-2.6-2.5-2.7-6.6-0.2-9.1c2.6-2.6,6.8-2.7,9.4-0.2
								C126.8,229.6,126.8,233.7,124.3,236.3z"/>
						</g>
						<g>
							<path class="st115" d="M60.6,347.5c-1.9,1.9-5,1.9-6.9,0.1c-2-1.8-2-4.8-0.1-6.7c1.9-1.9,5-2,6.9-0.1
								C62.4,342.6,62.5,345.6,60.6,347.5z"/>
						</g>
					</g>
					<g>
						<g>
							<path class="st115" d="M124.3,236.3c-2.6,2.6-6.8,2.6-9.4,0.2c-2.6-2.5-2.7-6.6-0.2-9.1c2.6-2.6,6.8-2.7,9.4-0.2
								C126.8,229.6,126.8,233.7,124.3,236.3z"/>
						</g>
						<g>
							<path class="st115" d="M60.6,347.5c-1.9,1.9-5,1.9-6.9,0.1c-2-1.8-2-4.8-0.1-6.7c1.9-1.9,5-2,6.9-0.1
								C62.4,342.6,62.5,345.6,60.6,347.5z"/>
						</g>
					</g>
				</g>
				<g>
				</g>
			</g>
			<g>
				<defs>
					<rect id="SVGID_141_" x="-1662.8" y="-1028.7" width="3267.4" height="3164.9"/>
				</defs>
				<clipPath id="SVGID_7_">
					<use xlink:href="#SVGID_141_"  style="overflow:visible;"/>
				</clipPath>
				<g style="clip-path:url(#SVGID_7_);">
					
						<radialGradient id="SVGID_8_" cx="2267.8347" cy="-1308.0546" r="2868.0969" gradientTransform="matrix(0 -1.8526 1.9126 0 2243.8171 1245.915)" gradientUnits="userSpaceOnUse">
						<stop  offset="0" style="stop-color:#FFFFFF"/>
						<stop  offset="0.201" style="stop-color:#F36C21"/>
						<stop  offset="0.2099" style="stop-color:#EB6820"/>
						<stop  offset="0.2661" style="stop-color:#BA5319"/>
						<stop  offset="0.3267" style="stop-color:#8E3F13"/>
						<stop  offset="0.3906" style="stop-color:#672E0E"/>
						<stop  offset="0.4584" style="stop-color:#47200A"/>
						<stop  offset="0.5314" style="stop-color:#2D1406"/>
						<stop  offset="0.6114" style="stop-color:#190B03"/>
						<stop  offset="0.7021" style="stop-color:#0B0501"/>
						<stop  offset="0.8128" style="stop-color:#020100"/>
						<stop  offset="1" style="stop-color:#000000"/>
					</radialGradient>
					<path class="st8" d="M-257.9-8268.8c3029.5,0,5485.4,2378.9,5485.4,5313.4c0,2934.5-2455.9,5313.4-5485.4,5313.4
						c-3029.5,0-5485.4-2378.9-5485.4-5313.4C-5743.3-5890-3287.4-8268.8-257.9-8268.8z"/>
					
						<radialGradient id="SVGID_9_" cx="2267.8318" cy="-1308.0531" r="2421.8613" gradientTransform="matrix(0 -1.8526 1.9126 0 2243.8171 1245.915)" gradientUnits="userSpaceOnUse">
						<stop  offset="0" style="stop-color:#FFFFFF"/>
						<stop  offset="0.201" style="stop-color:#F36C21"/>
						<stop  offset="0.2099" style="stop-color:#EB6820"/>
						<stop  offset="0.2661" style="stop-color:#BA5319"/>
						<stop  offset="0.3267" style="stop-color:#8E3F13"/>
						<stop  offset="0.3906" style="stop-color:#672E0E"/>
						<stop  offset="0.4584" style="stop-color:#47200A"/>
						<stop  offset="0.5314" style="stop-color:#2D1406"/>
						<stop  offset="0.6114" style="stop-color:#190B03"/>
						<stop  offset="0.7021" style="stop-color:#0B0501"/>
						<stop  offset="0.8128" style="stop-color:#020100"/>
						<stop  offset="1" style="stop-color:#000000"/>
					</radialGradient>
					<path class="st9" d="M-257.9-7442.1c2558.2,0,4632,2008.8,4632,4486.7s-2073.8,4486.7-4632,4486.7
						c-2558.2,0-4632-2008.8-4632-4486.7S-2816.1-7442.1-257.9-7442.1z"/>
				</g>
				<g style="clip-path:url(#SVGID_7_);">
					
						<radialGradient id="SVGID_10_" cx="1057.7185" cy="265.8783" r="1393.0282" gradientTransform="matrix(0 -1.8526 1.9126 0 2243.8171 1245.915)" gradientUnits="userSpaceOnUse">
						<stop  offset="0" style="stop-color:#FFFFFF"/>
						<stop  offset="0.201" style="stop-color:#F36C21"/>
						<stop  offset="0.2099" style="stop-color:#EB6820"/>
						<stop  offset="0.2661" style="stop-color:#BA5319"/>
						<stop  offset="0.3267" style="stop-color:#8E3F13"/>
						<stop  offset="0.3906" style="stop-color:#672E0E"/>
						<stop  offset="0.4584" style="stop-color:#47200A"/>
						<stop  offset="0.5314" style="stop-color:#2D1406"/>
						<stop  offset="0.6114" style="stop-color:#190B03"/>
						<stop  offset="0.7021" style="stop-color:#0B0501"/>
						<stop  offset="0.8128" style="stop-color:#020100"/>
						<stop  offset="1" style="stop-color:#000000"/>
					</radialGradient>
					<path class="st10" d="M2752.3-3294.3c1471.4,0,2664.2,1155.4,2664.2,2580.7S4223.8,1867.1,2752.3,1867.1
						C1280.9,1867.1,88.1,711.7,88.1-713.6S1280.9-3294.3,2752.3-3294.3z"/>
				</g>
			</g>
			<g>
				<path class="st147" d="M-927-259.2c103.2-63.8,204.9-130,305-198.7c90.4-64.8,180.7-129.6,271.1-194.4
					c166-124.5,331.1-249.9,495.6-376.3h-529.9c-28.6,23.5-57.1,47.2-85.5,71c-7.3-12.1-15.8-22.3-22.6-27.8
					c-15.5-11-31.6-15.7-48.3-14.4c10.2-9.4,20-19.1,29.8-28.8h-672c-73.1,128.1-161.8,245.8-254.3,360.9
					c-45.1,53.2-90.6,106.2-136.4,158.9c-24.7,28.6-49.4,57.2-74.1,85.8c-4.7,2.4-9.4,5-14.1,7.4v962.9
					C-1414.7,287.6-1178.6,16-936.5-249C-933.4-252.5-930.2-255.8-927-259.2z"/>
				<path class="st147" d="M747.2,79.4c0.3-0.4,0.6-0.8,0.9-1.1c15.4-11.7,30.7-23.3,46.1-35c223.8-177.9,443.7-360.4,659.6-547.4
					c30.9-26.2,7.6-85-15.1-106.5c-25.6-20.4-54.4-24-86.3-10.8c-48,11.8-93.9,29-137.6,51.7c-98.9,65-197.8,130-296.7,194.9
					C660.6-220.7,396.2-78.8,124.9,50.8c-18.2,9.6-36.4,19.3-54.6,28.9c82.9-102.4,164.8-205.4,246.2-309
					c159.6-111.4,323.8-216.7,485.3-325C914.2-630.4,1022.9-711.3,1128-797c91.8-71.6,173.5-150.1,253.6-231.7H212.1
					c-46,42.6-90.9,86.5-134.4,131.9c-227.9,212.2-455.8,423.2-678.1,641.1c-277.6,272.1-532.2,566.3-773.9,869.3
					c-96.5,2.2-192.6,9.5-288.5,21.8v185.2c38.4-5.6,76.9-10.6,115.6-14.8c-38.6,30.8-77,61.9-115.6,92.9v831.2
					c15.1-6.6,30.2-13.5,45.3-20c-15.1,10-30.2,20-45.3,29.9v396.4h60.3c103.3-97.6,206.5-195.4,309.3-293.5
					c3.9-1.8,7.8-3.5,11.7-5.3c104.9-44.9,208-98.9,306.3-156.3c52.7-30.8,103.6-63.4,153.8-97c-23.2,50.5-46.2,101.2-68.8,152
					c-61.1,133.6-122.9,266.8-184.9,400h338.2c25.4-61.3,50.8-122.6,76-183.9c69.4-170.8,137.1-342.2,203.1-514.2
					c22.5-61.9,48.1-122.3,76.6-181.1c48.5-41.3,96.1-83.5,143-126c10.9-10.7,21.7-21.5,32.6-32.2c14.8-17.7,29.7-35.3,44.6-52.9
					c125.3-71,249.8-143.3,373.4-217.2c138.2-109.8,288-199.5,449.3-269.1c65.4-34.1,129.8-69.9,193.2-107.4
					c-12.1,23-24.1,46-36.1,68.9c-54.2,82.5-108.5,165-162.8,247.5c-69.4,83.5-138.7,166.9-208,250.4
					c-27.9,30.7-55.7,61.5-83.5,92.3c-87.3,80-174.6,159.9-261.8,240.1c-180.6,186.5-360.6,373.7-539.9,561.4
					c-52.8,77.6-109.7,152-170.1,223.4H726.1c49.8-42.8,99.5-85.7,149.2-129c176.4-158.3,349.9-319.6,520.6-483.9
					c69.8-65.1,139.2-130.5,208.8-195.9V938.6c-15.4,17.9-30.8,35.7-46.2,53.5c-75.4,79.9-153.3,157.4-234.1,232.2
					c-39.7,34.5-79.4,68.9-119.1,103.4c-119.1,99.6-239.7,197.6-361.4,294.1c-152.5,117.3-298.5,241.9-438.1,373.6
					c48.6-95.2,99.6-189.2,159.8-278.5c8.6-11.2,17.1-22.5,25.8-33.6c84.7-83.5,170-166.3,256.1-248.4
					c218.1-210.8,444.9-412.4,677.8-607.3c26.5-16.2,52.9-32.4,79.4-48.7V396.1c-15.6,12.9-31.3,25.6-46.8,38.6
					c-155.3,129-308.2,260.6-458.7,394.9C950.4,960,806.3,1095.2,664.6,1232.9c-17.4,13.3-34.7,26.8-51.9,40.3
					c-99.1,77.8-188.9,169-276.4,258.9c-17.5,18.2-34.5,36.8-51.2,55.6c-27.6,17.6-55.1,35.4-82.5,53.3
					c110.6-149.5,220.5-299.5,332.4-448.1c7.3-9.1,14.6-18.3,21.9-27.4c110.5-101.9,220.8-204,330.6-306.5
					c103.1-96.3,204.1-194.7,303.1-295c103.2-102.9,201.1-210.8,295.4-321.7c32.5-22.2,64.9-44.4,97.7-66.2
					c5.7-12.6,11.3-25.2,17-37.9c-0.5-10-2.5-19-5.7-27.1c3.2-3.9,6.4-7.8,9.6-11.8v-547.6c-250.3,140-494.5,290-732.4,449.8
					C830.5,27.5,788.9,53.5,747.2,79.4z M-1272.1,1424.5c-128.1,64.3-255.9,129.2-383.1,195.2c-1.2,0.4-2.3,0.8-3.5,1.2
					c11.9-21.3,23.8-42.6,35.7-63.9c159.4-85.1,315.7-175.2,468.9-270.4C-1192.6,1333.3-1231.9,1379.3-1272.1,1424.5z
					 M-973.2,1054.2c-2.8,3.9-5.8,7.7-8.6,11.5c-130.1,50.7-259.6,102.6-388.7,155.8c26.9-34.1,53.7-68.3,80.6-102.4
					c133.9-96.1,270-189.3,405.4-282.6c51.7-35.6,103.9-70.4,156.4-104.7c-26.5,34.6-53,69-79.5,103.6
					C-862.7,908.3-918,981.3-973.2,1054.2z M-794.8,1132.3c11-14,22.1-27.9,33.1-42c18.1-22.2,36.3-44.3,54.4-66.5
					c40-17.1,79.4-35.1,118.4-54C-658.2,1023.1-726.8,1077.3-794.8,1132.3z M-512.8,392.6c35.9-27.3,71.8-54.8,107.7-82
					c-4.1,5.3-8.1,10.6-12.2,15.9c-5.8,7.6-11.6,15.2-17.4,22.7C-460.7,363.6-486.8,378-512.8,392.6z M87.1,355.7
					c-44,30.9-88.2,61.6-132.9,91.7c-133.7,83-266,167.9-397.3,254.4c80.3-97.3,160.8-194.5,241.3-291.6
					c113.5-66,227.6-131.1,341.5-196.2c51.2-27.3,102.4-54.6,153.7-81.9C224.5,206.5,155.7,281,87.1,355.7z M1500.8-181.1
					c-2.3,3.7-4.4,7.4-6.7,11.1c-42.1,71.8-88.6,141-136.8,209.2c-9.8-0.6-19.5-1.1-29.3-1.4c-73.8-6.8-147.5-5.4-220.9,4
					c-74,35-148,70.1-222,105.1c-48.1,34.2-96.3,68.2-144.8,102c-103.2,72.3-204.8,146.9-308.1,219.2c-31.8,17-62.6,35.7-92.1,56.3
					c-38.2,27-76.6,53.5-115.3,79.7c66.4-72.4,134.2-143.6,202.9-214.2c49.5-36.3,96.4-75.1,141-116.3
					c269.5-165.3,553.7-304.2,852.7-416.5C1448.1-155.1,1474.5-167.9,1500.8-181.1z"/>
				<path class="st147" d="M1443-142.9c-49.4,17.8-98.8,35.6-148.2,53.4c14.3-1.4,28.6-2.7,42.9-4.1c-40.7,7.2-80.6,7-119.7-0.3
					c1.4-11.7-1.8-24-9.5-37.1c17.8-22.9,35.4-45.9,52.6-69.1c65-83,125.8-169,182.3-257.7C1498-543,1546.4-631.2,1589-722.5
					c27.9-55-49.5-81.9-87.3-76.4c-31.6,9.2-63.1,18.4-94.6,27.5c-87.2,32.2-172,69.8-254.3,112.7
					c-254.2,149.6-503.1,307-746.9,472.3c-14.4,9.8-28.7,19.6-43.1,29.4c18.4-21.7,36.6-43.5,54.3-65.9c6.3-12.2,8.8-23.5,8.1-34.2
					c200.7-144.3,395-296.5,582.9-456.6c31.3-16.1,45.4-40.9,42.3-74.4c-9-32.5-31-51-66-55.5c-69.8-1.9-138.9,4.2-207.4,18.4
					c-69.3,9.9-136.3,27.5-201.1,52.9C464.9-707,354-641.8,243.2-576.6C105.5-525.2-23.2-459.6-142.9-380
					c13.5-16.9,26.9-33.9,40.3-50.8c19.4-14,38.6-28.1,58.1-42c162.1-115.9,331.5-222.6,497.3-333.3
					c103.7-70,204.1-144.3,301.4-222.5h-2416.9v3164.9h119.2c35.7-35.3,71.9-70.2,109.5-103.8c17.5-14.4,34.5-29.2,51.7-43.9
					c-22.4,49.2-44.8,98.4-67.2,147.6h2703.2c41.5-45.3,81.6-91.6,120.7-138.6c76.3-53,153.1-105.5,230.3-157.2V784.3
					c-183.4,124.3-360.9,256.3-532.4,396.2c-96.3,79.4-192.6,158.7-289,238.1c-36.8,30.8-73.7,61.5-110.7,92.1
					c19.5-26.8,39-53.5,58.4-80.3c112.3-119.1,229.2-233.6,351.5-342.9c151.9-141.5,300.3-283.9,444.3-433.1
					c26.5-28.4,52.3-57.3,77.8-86.5v-786.4c-21.3,4.6-42.4,9.8-63.4,15.5C1508.5-183,1475.8-162.9,1443-142.9z M172.5,394.2
					C127.7,495.6,83,596.9,38.2,698.2c-47.7,84.5-95.3,169-143,253.5c-88.2,141.3-182.4,278.6-282.9,411.8
					c-69.8,95.4-141.6,189.4-215.5,281.9c-27.5,34.4-55.6,68.3-84.2,101.8c-16.7,13.1-33.3,26.3-49.9,39.6
					c-17.4,14.1-34.5,28.5-51.4,43.1c52.1-163.8,101.1-328.4,147.9-493.7c18.5-14.1,36.9-28.1,55.6-42
					c151.1-86.9,292.1-187.2,423-300.8c88.2-75.7,116.6-181.8,85.5-318C-40.3,596.7-4,518.1,32.3,439.4
					c36.8-23.4,73.6-46.8,110.6-69.9c13.8-5.8,27.6-11.7,41.4-17.5C180.3,366,176.4,380.1,172.5,394.2z M872.6-284.2
					c-10.8,16.6-21.7,33.1-32.7,49.5c-12.5-1.6-25-2.8-37.5-4.2C825.8-254,849.2-269.1,872.6-284.2z M926.2,288.7
					C801.3,394.1,677.8,501.2,556,610c-84.5,74.1-167.5,149.7-249.5,226.3c10.8-12.7,21.5-25.3,32.3-38
					C436.6,695.9,536.1,595,637.1,495.5C762.7,370,884.6,241.9,1004.4,111.1C978.7,169.8,953,228.4,927.3,287
					C926.9,287.6,926.6,288.1,926.2,288.7z M997.2,771.6c13-29.5,26.1-59,39.2-88.5c42.2-36,84.6-71.8,127.3-107.3
					C1108.9,641.9,1053.5,707.1,997.2,771.6z"/>
				<path class="st147" d="M1584-933.1c7.1-10.7,13.9-21.4,20.6-32.2v-63.4h-560.8C917.1-929.8,785.8-837.6,650.2-752
					c120.5-90.4,239.4-182.7,357-276.7H579.2C340-892.2,94.1-767.9-158.3-656c6-7.2,12.1-14.4,18.1-21.6
					c20-23.9,39.8-47.9,59.6-71.9c128.5-93.6,258.6-185.3,391.9-273c3.2-2.1,6.4-4.1,9.6-6.2h-801.3
					c-87.8,90.9-177,180.5-266.9,269.8c51.6-60.2,104.3-119.5,158-177.9c33.1-30.6,66.2-61.2,99.2-91.8h-365.4
					c-20.2,20.6-40,40.8-59.1,60.2c-263.6,267-506.9,550.9-738.7,844.1c-3.2,0-6.4,0-9.6,0v773c65.8-32.5,131.7-64.9,197.6-97.2
					c-58.6,86.5-124.6,165.6-197.6,237.8v429.1c46.6-44.8,93.2-89.5,139.7-134.4c40.5-20.7,81.1-41.3,121.6-62
					c81.4-41.5,161.5-85.2,240.6-130.9c-30,66.2-61,131.9-93,197.3c-138.7,296.6-274.8,594.6-408.9,893.2v154.6h314
					c46.9-38.7,94.4-76.5,143-113.2c-20.2,37-39,74.8-56.7,113.2h856.7c31.1-26.6,62.4-52.9,93.8-79
					c135.9-54.9,271.7-109.8,407.5-164.7c78.5-39.6,157.5-78,237-115.4c-104.1,81.7-208.4,163.3-313.4,244
					c-49.7,38.2-99.3,76.7-148.9,115.1h411.9c95.5-59.3,192.2-117,290.2-172.7c224.6-108,448.8-216.6,672.8-325.7
					c120.7-63.1,240.5-127.9,359.5-193.9v-192.8c-208.2,134.6-427,254.4-641.7,378.3c-127.2,70.4-255.9,137.8-386.2,202.2
					c138.3-120.1,277.1-239.7,417.2-357.9c79.7-65.5,160.6-129.5,242.6-192.3c22.5-14.1,45-28.2,67.5-42.4
					c97.9-62.7,198.2-121.6,300.6-177V789.5c-85.4,62.1-169.8,125.4-252.8,191c-39.4,30.2-78.7,60.5-118,90.9
					c-64.3,44.4-128,89.6-191.1,135.7c-66.9,47.6-133.9,95.2-200.8,142.8c-158.5,107.6-319.3,211.6-482.4,312.3
					c-124.5,51.2-249,102.4-373.5,153.7c63.6-51.1,127.1-102.3,189.8-154.2c93.4-79.4,185.5-160.1,276.5-242
					c252.5-224.2,495.2-458.2,738.1-692.1c131.9-129.6,270-252.3,414.2-368.2v-775.7c-7.2,5.5-14.4,10.8-21.6,16.3
					c-234.9,175.2-460.5,362-685.3,549.3c-41.9,22.4-83.6,45.2-124.7,69c-127.9,70.2-239.2,161.8-350.9,253.4
					c-63,49.9-124.6,101.2-185,154.1c-45.8,40.7-91.6,81.4-137.3,122.1c-40,41.3-78.5,83.9-116,127.3
					c-120.1,86.8-240,174-359.5,261.6c-3.6,2.6-7.1,5.4-10.7,8c11.9-13.8,23.8-27.6,35.8-41.3c69.5-80.3,139-160.6,208.5-241
					c105.8-115.6,215.1-227.8,328-336.8c48.5-44.8,97-89.6,145.5-134.3C460.8,276.4,589.6,161,716.8,44c32-24.9,64.5-49.4,97.6-73.1
					c104.6-70.6,209.2-141.3,313.8-211.9c105.1-81.7,207.4-166.8,306.8-255.4c18.9-19.6,31-42.6,36.1-69.1
					c7.5-47.1-39.7-66.8-73.3-86.7c-3-1.9-6.1-3.7-9.1-5.5c5.2-6.3,10.4-12.6,15.5-18.9C1468.7-759.1,1528.6-844.5,1584-933.1z
					 M-87.9,1434.4c24.9-48.6,49.6-97.1,74.5-145.4c6.7-4.6,13.5-9.2,20.2-13.7c51.3-35,102.1-70.7,153.1-106.1
					c13.1-9.1,26.1-18.1,39.2-27.2c142.7-138.5,286.6-276,431.7-412.2C934,442.6,1254.9,173.5,1585.2-84.1
					c-30.9,39.1-62.5,77.6-95.3,115.3c-168.4,205-370.2,384.5-566.5,563.2c-178.2,162.1-366.3,313.6-551,468.5
					c-155,125.2-309.3,251.2-463.4,377.5C-89.9,1438.3-88.9,1436.4-87.9,1434.4z M640.8-933c-29,24.1-57.9,48.4-87.1,72.4
					c-11.7,9.6-23.4,19.1-35.1,28.6c-20.4-3.3-41.1-4.6-62.3-3.8c-11.2-0.7-22.2-0.8-33.2-0.3C496-867.8,568.6-900.2,640.8-933z
					 M-258.5-941.3c-18.9,23.7-37.8,47.3-56.7,70.9c-25.9,19.5-51.7,39.1-77.5,58.7C-347.6-854.5-302.8-897.8-258.5-941.3z
					 M-400.1-369.4c88.5-53.8,176.8-108.1,264.6-163.2c103.7-66.1,207.4-132.2,311.1-198.2c41-17,82-34.2,122.8-51.6
					C132-616.3-34.5-450.6-198.5-282.4C-381.8-157-571.1-41.9-766.5,62.8C-644.6-81.5-522.2-225.3-400.1-369.4z M-812.8,209.3
					c-85.4,68.9-170,138.7-253.8,209.4c32.6-38.8,65.2-77.6,97.9-116.4C-916.5,271.6-864.6,240.6-812.8,209.3z M-1247.5,277.1
					c-5.5,7-11,13.9-16.6,20.9c-107.7,41-214.2,84.4-319.5,130.3c36.9-28.5,71.4-61.9,103.3-100.3
					c113.7-84.2,229.1-166.3,345.2-248.1l97.2-62.5C-1108,103.8-1178,190.3-1247.5,277.1z M-555.7,1777.3
					c-47.5,82.3-101.5,158.5-159.8,232.1c-59.3-0.1-118.6-2.4-177.8-6.9c7.8-14.1,15.5-28.2,23.3-42.4
					c52.1-86.2,109.5-168.9,171.7-248.3c87.5-50.7,175.3-101.1,263-151.8C-474.4,1632.8-514.3,1705.3-555.7,1777.3z M165,300.7
					c-193.6,182.4-386,366-579,548.8c-107.3,108.5-214.5,217-321.8,325.5c-148.1,169.6-290.1,344-425.9,523.2
					c-17.9,22.6-7.8,54.7,9.7,77.8c-15.8,10.9-31.6,21.9-47.3,33c-41.5,29.3-83.1,58.5-124.6,87.7c-42.2,36.2-85.3,71.5-128.8,106.1
					c91.3-222.5,187.5-443,284-663.4c69.3-159.7,139.7-319,211.1-477.9c14.7-40.1,29.9-80,45.7-119.7
					c71.2-45.6,141.2-92.9,210.5-142c89.3-63.1,174.9-132.2,256.1-205c31.6-36.9,63.3-73.9,94.9-110.8
					C-227.3,220.8-105.4,155,15.1,86.6c152.5-117.7,319-208.2,499.5-271.4c88.9-35,173.6-84,256.7-132.8
					C578.8-103,370.7,98.5,165,300.7z M1213.3-862.7c6.5-10.3,13-20.6,19.5-30.8c-42.4,63-86.8,124.7-132.9,185.1
					c-16.6,1.8-33.1,3.7-49.7,5.5C988.8-682.7,929.7-657.4,873-627c-24.3,15.1-48.6,30.2-73,45.3c-55.4,40.2-112.7,77.8-171.9,112.6
					c-65.1,42.4-131.4,82.9-198.9,121.7c-33.3,17.7-66.6,35.4-99.9,53.1C248.6-240,167.2-186.8,85.2-134.6
					C153.7-194.4,220.4-256.1,285-320c42.6-56.7,86.2-112.8,130.3-168.4c284.2-185.7,577.8-354.6,881-506.6
					C1270-950.1,1242.4-905.9,1213.3-862.7z"/>
				<path class="st147" d="M917.5-542.3c-52,36.4-103.5,73.4-154.6,110.9c55-161.8,142.3-293.6,262.4-395.1
					c75.9-43.9,150.6-90.2,224-138.9c-67.1-21.1-134.1-42.1-201.1-63.2h-2710.9v3164.9h300.1c11.7-11.1,23.4-22.2,35-33.4
					c76.5-73.4,157.8-142.5,241.6-207.8c19-14,38-28,57-42c-42.6,94.4-85.1,188.8-127.6,283.2h2761.2V-347.9
					c-17.7,1.4-35.5,2.6-53.3,4c-2.6,0.2-5.3,0.4-7.9,0.6c20.9-28.4,41.2-57.1,61.2-86v-416.5c-101.2,35.2-200.8,74.7-298.8,118.4
					C1172.8-672.9,1043.3-611.2,917.5-542.3z M-1291.2-992.5c-54.5,93.9-109,187.7-163.5,281.5c-11.2,11.2-22.4,22.3-33.7,33.5
					c65.6-109.6,132-218.7,198.6-327.7C-1290.2-1000.9-1290.7-996.7-1291.2-992.5z M12.5,668.2c12.1-23.3,24.2-46.6,36.4-69.9
					c6.1,15.6,12.3,31.2,18.4,46.8C49,652.8,30.7,660.5,12.5,668.2z M460.3-403.7c-114,13.3-227.3,31.3-339.9,54.3
					c-47.6,8.1-95.1,16.3-142.7,24.4c20.2-25.1,40.4-50.1,60.4-75.3c76.8-30,154.7-57.6,233.8-82.5c79-27.3,156.9-56.8,233.7-88.3
					l14.7,76.8C500.3-464.1,480.3-433.9,460.3-403.7z"/>
				<path class="st147" d="M1604.7-1028.7H777.9c-107,56.1-214,112.1-321,168.2c-5.1,0.2-10.2,0.2-15.3,0.5
					c-47.5-5.5-88.1,6.9-121.7,37.2c-12.4,12.7-24.8,25.4-37.2,38c-81.5,35-162.2,71.5-242,109.7c47-57,93.7-114.3,140.1-171.7
					c57.3-41.7,114.8-83.3,172.5-124.5c27.3-19.4,54.9-38.5,82.7-57.4H-630.3c-143.5,140.7-280.4,288.2-418,433.9
					c-133.7,141.7-261.2,290.7-383.4,442.6c-25.4,1.6-50.8,3.1-76.2,4.8c-51.9,3.3-103.5,8.1-154.9,14.3V39.7
					c29.4-3.9,58.9-7.5,88.4-10.6c-29.8,38.6-59.2,77.5-88.4,116.5v611.9c85.8-38.5,171.4-77.3,256.9-116.4
					c-31.1,44-63.7,86.8-98,128.2c-22.5,8.3-45,16.7-67.5,25c-30.5,10.9-61,22-91.5,33v525.9c40.8-37.1,81.6-74.2,122.3-111.3
					c50.5-32.4,101.3-64.1,152.6-95.3c121.7-70.4,242.8-141.7,363.3-213.9c-21.4,12.7-42.9,25.3-64.3,38
					c65.5-38.5,130.2-77.2,194.2-116.9c-79,155.4-155.2,312.1-228.1,470.2c-128.2,270.6-257.4,540.5-383.5,812h422.8
					c7.2-6.1,14.4-12.3,21.7-18.3c-2.7,6.1-5.4,12.2-8.1,18.3h731.3c4.9-4.1,9.9-8.2,14.8-12.3c95.9-21.8,191.6-43.9,287.2-66.6
					c119.5-27.3,286.6-114.1,438.8-201.2c-124.1,93.2-248.1,186.5-371.7,280.2H502c319-168.1,637-338.1,953.8-510.2
					c49.9-27,99.5-54.5,148.9-82.2v-218.3c-76.2,52.1-153.2,103.1-230.4,154c-220.3,131.6-444.5,256.5-672.6,374.7
					c255.6-199.3,512.4-397.1,772.1-591.6c43.6-32.9,87.3-65.6,130.9-98.4V837c-45.8,33.4-91.5,66.8-137.3,100.2
					c-104.4,84.2-206.9,170.4-307.6,258.8c-194.2,166.7-398.1,323.6-600.1,481.2c-194.2,85.3-393,158.9-596.3,220.4
					c99.4-76.1,200-150.9,299.5-226.8c279.2-213,541.9-447.1,803.4-680.1c79.4-70.7,158.7-141.4,238.1-212.1
					c96.1-94.7,196.3-184.7,300.2-270.3v-959.5c-93,71.7-185.6,143.9-277.7,216.9c-43.5,34.5-86.6,69.6-129.4,104.8
					c133.1-139.1,267.3-277.3,402.8-414.2c1.5-1.5,2.9-3,4.4-4.6v-116.8c-4.9-4-9.7-8.2-14.8-12.1c4.9-6.2,9.9-12.4,14.8-18.6
					V-1028.7z M-1163.3,307c-16,21.8-32,43.6-48,65.4c-141,67.4-283,132.7-426.1,196.1c7.3-9.2,14.6-18.3,21.9-27.5
					c6.1-4.5,12.1-9,18.2-13.5c10.6-5.8,20.4-12.9,29.5-21.6l1.9-1.6c100.5-74,202.2-146.5,303.6-219.1
					c75.9-54.3,153.1-106.5,231.3-157.3C-1075.3,187.6-1119.4,247.2-1163.3,307z M748.6-909.7c-14.6,13.4-29.1,27-43.7,40.3
					c-5.9,5-11.8,10.1-17.7,15c-4.4,0-8.8,0-13.3,0.2c-8.4-0.9-16.8-1.4-25.2-2.1C681.8-874.1,715.1-892,748.6-909.7z M-236.1-345.2
					c66.5-37.7,133.1-75.4,199.6-113c-137.2,140.6-268.5,285-396.7,432.6C-477-1.7-521,22-565,45.5C-455.7-85-346-215.2-236.1-345.2
					z M-838.1,374.4c21.2-12.2,42.2-24.6,63.1-37.3c12.7-7.6,25.3-15.4,38-23c-52.2,42.1-104.1,84.5-155.8,127.1
					C-874.5,419-856.3,396.7-838.1,374.4z M-366.4,1785.7c-27.3,41.5-54.6,82.9-81.9,124.4c-18.4,26.8-37.9,52.8-58,78.3
					c-10,7.6-20,15.3-30,22.9c-83.2,15.4-166.7,29.3-250.5,42c3.1-6.2,6.1-12.4,9.2-18.7c44.4-78.9,93.8-154.6,148-227.1
					c72.8-47.1,146-93.6,220.2-139.6c58.6-36.3,117-72.7,175-109.7C-276.5,1635-320.5,1710.9-366.4,1785.7z M-176.2,849.4
					c-66,68.5-131.9,136.9-197.9,205.3c-216.2,184.9-408.9,390.6-578.2,617.1c-22.3,15.1-30.3,35.2-24.2,60.4
					c5.9,22.7,17.1,42.3,32.8,59.4c-30.7,28.6-61.4,57.2-91.9,86c-12.2,10.6-24.4,21.2-36.6,31.7c-63.3,46.4-126.9,93.2-188.5,142.3
					c101.7-225.6,205.6-450.1,310.9-674.2c76.4-169.8,156.5-338,240.4-504.5c23.8-63.7,48.8-127,74.8-189.8
					c84-59.5,164.6-123.8,244.5-188.5c45.5-36.3,90.1-73.7,133.7-112.1c30.5-27.7,59.5-56.7,87.2-86.9
					c134.9-70,267.6-144.4,397.8-223.2C373.2-44.5,532-135.2,705-199.5c40.1-19.1,79.3-39.7,117.9-61.5
					c-44.1,55.6-88.5,111-132.8,166.3c-75.7,94.3-152.2,188-229.3,281.1c-81.5,100.5-167.7,197-258.4,289.6
					C77.9,602.1-48.2,726.6-176.2,849.4z M1110.2-57C938.8,87,771.5,235.7,604.5,384.6c-189,168.6-370,346.3-550.3,523.9
					C244.3,702.4,448,510.4,648.3,313.8C794.3,180.6,948.2,57,1110.2-57z M1491.6,110.3c4.4-2.7,8.8-5.4,13-8
					c-23.1,29.5-46.3,58.9-69.3,88.3c-74.7,90-151.1,178.6-229.3,265.7c-137.3,156.2-284.2,301.6-435.6,444.5
					C626,1028,478.7,1152,328.6,1272.7c-89.8,77-179.5,154-269.3,231c-15.3,11.4-30.4,23.2-45.6,34.7
					c25.5-49.1,50.5-98.3,75.8-147.1c13.9-28,27.8-55.9,41.7-83.9c59.1-42.9,117.8-86.2,176.6-129.4c37.5-27.2,75.1-54.3,112.8-81.3
					c70.4-69.8,140.8-139.7,211.1-209.5c143.4-139.8,289.7-276.6,438.8-410.4C1207.7,351.3,1348.4,229.4,1491.6,110.3z
					 M1208.1-790.1c-10.6,1.4-21.2,3-31.8,5.1c-75.3,7.8-145.6,45.7-208.8,83.9c-27.3,16.2-54.3,32.7-81,49.7
					C804.3-589.9,725-525.6,645.7-460.7c-65.2,53.4-132.1,104.7-200,154.6c10.8-13,21.8-25.8,32.6-38.8c11.6-14.4,23-29,34.1-43.7
					c163.4-118.3,326.9-236.6,490.3-354.9c88.8-49.5,178.2-98,268.2-145.5C1250.3-855.7,1229.4-822.7,1208.1-790.1z"/>
				<path class="st147" d="M1334.1-15.5c-0.4,0.3-0.9,0.5-1.3,0.8C1111.6,111.7,898.5,249.5,693.1,398c-17.9,8.7-35,18.9-51.2,30.7
					C470,550.5,305.7,681,148.6,819.8C-35.7,969.5-215.7,1124.2-391.1,1284c-57.2,44.7-114.2,89.7-170.9,134.9
					c14.6-23,29.2-46,43.7-69c24.9-35.6,49.8-71.2,74.8-106.7c14.4-18.1,28.7-36.2,43.1-54.3c33.1-37,66.2-73.9,99.3-110.9
					c91.8-98.3,187.8-192.5,287.8-282.8c6-6.5,12.2-12.8,18.3-19.2c37.6-33.2,74.9-66.8,111.5-101.1
					C239.8,564.7,363,454.4,485.2,343.2c14.6-11.1,29-22.3,43.8-33.3c235.4-136.4,449.4-299.5,642-489.3
					c19.4-15,31.6-34.6,36.6-58.6c10.9-39,9.1-66.6-26.7-89.2c-7-4.4-14-8.8-21-13.3c21.3-25.4,42.4-50.8,63.4-76.5
					c65.3-83.3,125.8-169.8,181.6-259.4c54.2-87.1,101.8-177.5,142.7-271.3c12.1-25.3,11.2-54.6,2.3-81h-217.2
					c-204.9,112.5-409.4,225.9-613.3,340.2c99.2-79.7,197.6-160.4,294.8-242.5c12-20.1,17.7-41.9,17.2-65.3
					c1.2-11.1,0.8-21.9-0.8-32.4H842.7c-128,71.5-256,142.9-383.9,214.4c-273.4,129-540.6,269-801.8,419.7
					c27.2-32.7,54.5-65.4,81.7-98.2c62.8-45.4,126.2-90.3,190.2-134.1c54.7-35.6,109.5-71.3,164.3-106.9
					c112.1-70.4,223-142.4,332.8-216.2c38-25.5,75.3-51.9,112.3-78.7H184.5c-11.9,7.8-23.7,15.5-35.6,23.2c4-5.2,8-10.3,11.9-15.5
					c7.5-2.5,14.9-5.2,22.4-7.7H-96.1c-4.5,1.8-9,3.6-13.5,5.4c-3.2-0.2-6.5-0.4-9.7-0.6c1.5-1.6,2.9-3.2,4.5-4.8h-382.6
					c-19.4,4.7-38.3,10.4-56.9,17.2c5.6-5.7,10.9-11.5,16.4-17.2h-249.4c-46.2,41.6-90.1,85.8-131.8,132.6
					c-53.5,55.9-106.9,111.7-160.4,167.6c-129.6,137.8-254.8,279.3-375.6,424.5c-70.4,82.1-139.6,165-207.5,248.8v877.1
					c35.9-21.9,71.9-43.8,107.8-65.7c-36,44.2-71.9,88.5-107.8,132.7v509.8c36-37.8,71.9-75.7,107.8-113.6
					c62.5-32.2,124.6-65.7,186.2-100.2c-16.2,38-31.9,76.2-47,114.6c-80.1,187.7-163.3,374.2-247,560.5v276.3h795.2
					c11.8-19.3,23.7-38.5,35.9-57.5c49.2-70.9,99.7-139.7,151.9-207.5c26.7-15.2,53.4-30.5,80-45.9c-14.2,26.8-28.4,53.6-42.8,80.2
					c-43.1,78.6-89.4,155.4-138.3,230.7H19.4c26.1-12.1,52.3-24,78.4-36.1c9.8-4.8,19.6-9.7,29.4-14.6
					c-21.6,16.9-43.3,33.8-64.9,50.7h572.8c131.6-65.4,262.2-132.7,391.6-202.4c197-103,389.2-213.5,578.2-329.2v-192.8
					c-210.9,132.9-432.1,251.7-648.6,373.3c-79.9,45.1-160.6,88.6-242.1,130.7c111.2-113.7,220.8-228.8,330.9-343.4
					c23.2-21.9,46.3-43.7,69.5-65.6c47.2-29.3,94.5-58.5,142.1-87.2c120.3-62.1,236.4-130.9,348.2-206.6V914.3
					c-14.5,7.5-28.9,15-43.6,22.3c-70.7,40-136.3,87.2-197.1,141.7c-66.2,53.7-132.4,107.3-198.7,161
					c-51.5,43.4-103,86.6-154.7,129.9c-77.3,50.6-154,102.1-229.9,154.8c-145.5,100.1-294.4,195-446.9,284.6
					c-54.9,35.3-109.9,70.6-164.8,105.9c22.2-20.9,44.6-41.7,66.6-62.8c202-191.1,398.9-386.4,593.5-584.6
					c151.4-162.6,305.7-322.4,463.1-479.6c97.6-84.9,195.2-169.7,292.8-254.6c6.5-4.9,13.1-9.7,19.7-14.6V310.4
					c-2,1.2-3.9,2.3-5.9,3.5c2-2.3,3.9-4.5,5.9-6.8v-529.4c-53.4,40-106.6,80.2-159.6,120.8C1408-73,1371-44.3,1334.1-15.5z
					 M322.4-576.9c-10.6,8.3-21.1,16.7-31.7,25c-10.5,0.5-20.6,2.1-30.4,4.8C281.1-557,301.8-566.9,322.4-576.9z M1228.8-776.3
					c-0.4,0.6-0.7,1.1-1,1.7c-54.3,89.4-113.2,175.7-176.7,259c-29.4,40.8-60.2,80.6-91.9,119.8c-1.8,0-3.7-0.1-5.5-0.1
					c-56-3.9-109.4,6-160.3,29.8c-73.4,23-138.2,60.7-204.7,97.8c-65.8,40.3-132,79.9-198.6,118.8
					c-67.4,40.6-135.8,79.4-205.4,116.4C145-15.9,106,2.7,67.7,22.6c-91,59.5-183,117.6-275.8,174.2C-139.6,141-71.9,84.3-5.2,26.5
					C76.1-45.1,152-121.3,223-201.9C552.3-403.5,887.5-595,1228.8-776.3z M-38.2-407.6c86-39.1,171.5-78.9,256.7-119.5
					c-43.1,43.6-86.4,87.2-129.6,130.7c-52,39.4-104.3,78.4-156.9,117c-255.4,179.8-508.4,363-758.9,549.4
					c-42.1,17.1-84.1,34.4-126,52c65.6-76.1,131.3-152.1,196.8-228.2c54.2-63,108.2-126.1,161.9-189.3
					c78.8-51.4,157.3-103.1,235.3-155.7L-38.2-407.6z M-628.7-514.5c126.1-116,248-236,366.1-359.6c7-0.8,13.9-1.7,20.9-2.5
					c7.7-2.3,15.4-4.5,23.2-6.7c9.3-4.5,18.7-8.7,28.1-13c-31,39.9-61.9,79.9-93.1,119.7c-35.3,44.3-70.8,88.5-106.4,132.5
					c-186,139.3-371.5,279.2-556.5,419.8c-16.4,12.4-32.8,24.8-49.1,37.2C-871.4-294.3-749.1-403.4-628.7-514.5z M-886.7,389.3
					c-2.4,1.9-4.9,3.8-7.3,5.7c-119.1,100.4-238.3,200.9-357.4,301.3c-27.2,23.5-54.2,47.2-81.4,70.8
					c70.9-84.5,142.4-168.6,214.2-252.4C-1041.2,473.1-963.9,431.3-886.7,389.3z M-1578.6,603.9c97.2-81.2,195.3-161.4,293.8-241.3
					c45.2-32.4,90.5-64.8,135.7-97.2c-62.8,74.5-125.2,149.4-187.3,224.5C-1417.6,527.1-1498.3,565.1-1578.6,603.9z M-670.4,1150.8
					c-94.4,112.2-188.8,224.4-283.2,336.6c-110.1,167.6-234.4,324.7-372.8,471.5c-21.6,22-28.4,46.2-20.6,72.4
					c-6.6,3.4-13.1,7-19.6,10.6c-42.6,23.2-84.8,46.9-126.9,71.1c55.5-149.6,110.5-299.4,164.9-449.3
					c56.3-155.8,111.8-311.9,166.4-468.3c18.7-58.8,39.9-116.5,63.3-173.3c42.2-27.4,84-55.3,125.1-84.1
					c123.5-86.3,245.2-175.7,354.9-278.6c25.3-30,50.6-60.1,75.9-90.1c103.8-56.3,206.8-114,309.1-173
					c127.4-72.2,252.9-147.6,376.5-226.2c45.8-18.1,90.9-37.6,135.3-58.8c79-37.6,156.2-78.4,231.7-122.3
					c69-39.2,137.8-78.6,206.6-118.2c3.7-2.2,7.5-4.2,11.3-6.4C646.4-51,563,31.3,480.2,113.1C323.4,258.9,166.2,404.7,7,548.3
					c-33.9,24.1-67.7,48.3-101.5,72.4c-52.8,48-105.5,96.1-157.9,144.5c-24.8,25.7-49.5,51.4-74.3,77.1
					c-13.2,11.3-26.3,22.8-39.6,34.1C-481.2,955.2-582.5,1046.7-670.4,1150.8z M1556.1,65.4c-22.9,30.2-46.1,60.2-70.3,89.5
					c-80.2,97.3-165.1,190.5-254.6,279.6c-90.8,91.4-185.2,179.1-283.2,263.2c-122.9,103.6-246.9,206.1-372,307.1
					c-136.9,114.9-277,225.8-420.4,332.9c-60.6,40.8-119.7,83.3-177.2,127.5c5.8-11.1,11.5-22.1,17.4-33.1
					c8.2-5.8,16.4-11.5,24.5-17.3c139.9-138.3,280.9-275.5,423-411.6C659.9,793.8,895,601.3,1125.9,407.5
					c139.2-116.7,281.8-229.4,426.3-339.8C1553.5,66.9,1554.8,66.2,1556.1,65.4z"/>
				<path class="st147" d="M1051.2-263.1c88-72.6,175.6-145.7,263.2-218.6c19.5-10.6,27.7-26.8,24.3-48.6
					c-2.1-26.3-9.3-51.2-21.7-74.7c-24.6-44.3-78-29.6-115.2-9.9c-158.2,83.5-316.4,167-474.6,250.5
					C448.4-250.6,188.3-106.7-52.9,67.2c46.6-56,93-112.1,139.3-168.4c197.2-144.4,405.3-274.5,608.9-409.9
					c112.7-75.9,221.5-156.7,326.6-242.4c103.7-84.8,200.6-176.6,290.6-275.2H965.9C900.1-965.9,831.6-906,760.2-849
					c-7.1,5.7-14.4,11.2-21.6,16.9c-34.1,11.3-68.2,22.5-102.3,33.8c23.6-30.3,47.2-60.6,70.9-90.7c36.6-46.4,73-93,109.1-139.6H319
					C193.1-881,63.4-736.3-66.6-592.1c-26.5,6.2-53,12.2-79.5,18.1c-33.7,5.5-67.5,10.9-101.2,16.4
					c119.6-110.9,237.3-223.7,352.6-338.8c54.7-44.1,109.3-88.1,163.9-132.2h-803.7c-27.2,21.9-54.4,43.7-81.6,65.6
					c-4.2-7.7-8.7-14.8-13-21.2c-0.2-0.3-0.4-0.5-0.6-0.8c14.8-14.2,29.1-28.8,43.2-43.6h-377.9c-116.3,70-226.1,147.2-329.5,231.7
					c59.7-75.6,117.2-152.8,172.1-231.7h-215.4c-10.4,15.1-20.7,30.1-31.2,45.2c-89.7,127.9-191,248.3-294.4,366.3v949.5
					c80.4-92.2,160.3-184.7,239.6-277.8c62-71.1,124.1-142.2,186.1-213.3c49-27.6,98-55.3,147-82.9
					c211.9-128.3,418.4-264.4,619.5-408.5C-309-766.5-148.6-884.3,11-1003.3c-64.3,52.5-128.5,105-192.8,157.5
					c-150,134-296.8,271.3-440.5,411.7c-350.4,335.2-670.9,697.8-971,1076.2c-23.1,0.1-46.3,0.4-69.5,0.9v832.3
					c155.7-105.4,311.4-210.8,467.3-315.8c-99.1,118.7-205.8,230.5-320.1,335.5c-48.7,22.5-97.9,44.2-147.2,65.3v450.4
					c53.8-53.4,107.6-106.9,161.4-160.4c45.9-18.3,91.7-36.6,137.6-54.9c72.3-34.6,144.1-70.4,215.2-107.4
					c27.9-14.2,55.3-29.1,82.6-44.3c-56.3,124.6-112.8,249.1-169.6,373.5c-18.1,39.7-36.3,79.4-54.4,119.1h325.8
					c22.3-57.7,44.6-115.4,66.7-173.2c61.6-165.4,121.8-331.4,180.5-497.8c5.9-18.3,12.3-36.4,18.9-54.3
					c125.9-86.9,248.8-182.4,358.5-287.1c12.3-11.7,24.5-23.4,36.8-35.1c14.8-18.2,29.8-36.3,44.7-54.3
					c243.3-133.1,481.8-274.1,715.4-423.1C538,579.7,616.1,542.9,691.6,501c73.5-40.6,146.5-81.9,219-124.2
					c49.5-31.9,100.1-61.9,151.8-90.3c-1.4,2.6-2.7,5.1-4,7.6c-12.3,13.4-24.7,26.8-37.2,40.1c-58.4,54.2-116.7,108.4-175.1,162.5
					C704.5,615.2,564.6,735.5,426.5,857.6c-123.2,114.5-241.9,233.4-356.4,356.3c-143,130.8-284.2,263.7-427.1,394.2
					c-117,91.3-218.6,195.3-305,311.8c-42.6,75.9-90.2,148-142.7,216.3H554.7c208.2-189.5,408.6-386.4,608.6-584.3
					c85.4-84.2,170.7-168.4,256-252.6c55.8-75.8,117.6-145.3,185.3-209V822.1c-22.7,23.8-45.7,47.5-69.1,70.7
					c-199.2,208.9-430.9,387-657.3,566.3c-75.5,59.8-151.1,119.6-226.6,179.4c-144.8,113.2-285.8,230.6-423.4,351.9
					c14-27.3,27.9-54.6,42.1-81.8c4-7.8,8.2-15.5,12.3-23.2c7.4-5.4,14.8-10.8,22.2-16.1c10.6-8.5,21.1-17,31.7-25.5
					c136.5-137.3,274.8-272.8,414.8-406.7c213.8-207.1,444.3-398.5,671.7-590.9c59.9-50.7,120.6-100.5,181.7-149.8V432.2
					c-21.7,17.3-43.5,34.6-65.1,52.1c-283.8,162.9-551.1,348.3-801.9,556.4c-117.9,84.6-233.9,171.2-348,260.6
					c-97.7,76.6-185.8,166.9-271.6,255.7c-34.6,36.6-67.7,74.3-99.4,113.2c-35,20.4-70.7,39.9-107,58.6c6.2-9.2,12.7-18.2,18.8-27.4
					c67.9-100.9,137.7-200.7,209.2-299.2c-10.2,13.2-20.4,26.4-30.6,39.6c37.7-50.4,77.2-99.1,118.7-146.3
					c68.6-59.3,136.8-119.2,204.4-179.7c110.3-93.8,218.9-189.3,326.1-286.5c102.3-93.7,203.3-188.6,303.2-284.8
					c30-28.6,59.3-57.9,88.3-87.4c88.7-74.4,178.4-147.6,269.4-219.5c24.6-13.6,37.9-34.4,40-62.2c2.8-19.6-0.8-36.9-10.7-51.9
					c30.5-36.6,60.9-73.4,91-110.5c22.4-28.7,44-57.9,65.3-87.3v-478c-148.7,78-297.4,156-446.1,234
					C1122.6-300.2,1086.8-281.7,1051.2-263.1z M-848.8-589.8c-1.4,0.9-2.7,1.7-4.1,2.6c35.1-36.1,70.6-71.9,106.6-107.2
					c61.1-34,123.8-65.4,185.4-98.6C-655.9-723.9-751.8-656.1-848.8-589.8z M332.9-743.5c16.3-17.7,32.5-35.5,48.7-53.3
					c-27.6,35.7-55.1,71.4-82.6,107.2c-7,2.1-14,4.2-20.9,6.3C296.4-703.4,314.8-723.3,332.9-743.5z M-98.9-286.8
					C-46.2-339.9,5.9-393.6,57.7-447.6c23.6-5.7,47.2-11.7,70.7-17.8C94.5-421.1,60.4-376.9,26-333
					C-83.6-256.4-190.7-175.9-297.1-94.7C-230.4-158.1-164.2-222.1-98.9-286.8z M-1559.4,1240.9c37.5-49.2,74.9-98.5,112.5-147.7
					c100.9-76,202.9-150.5,306.3-223.3c90.7-64.8,181.3-129.6,272-194.3c56.7-41.7,114-82.5,171.6-122.9
					c-45.3,54-90.4,108.2-135.8,162.1c-73.9,88.1-147.8,176.2-221.6,264.3c-18.3,25.1-37.1,49.9-56,74.4
					C-1261.7,1116.5-1410.8,1178.7-1559.4,1240.9z M-941.8,1372c-62.7,40-127.2,77.3-192.7,113c20.4-21.4,40.7-43,60.8-64.6
					c44.7-16.6,89.2-33.6,133.4-51.4C-940.8,1370-941.3,1371-941.8,1372z M-625.3,884.4c-102.8,71.2-204.1,144.2-304.1,219
					c9.7-11.8,19.5-23.6,29.2-35.4c36.2-42.5,72.4-85,108.6-127.5c96.6-48.2,193.3-96.4,289.9-144.6
					C-542.7,825.6-583.9,855.1-625.3,884.4z M-642.8,765.8c61.3-72,122.6-143.9,183.9-215.9c95-111.5,189.4-223.5,283.5-335.8
					c6.8-4.1,13.7-8.2,20.6-12.3C5.1,139.8,165,77.7,324.9,15.7c90.2-41.9,180-84.6,269.5-127.9c-10.3,8-20.5,16.1-30.9,24.2
					c-4.9,1.6-9.7,3.3-14.5,5.3c-33.6,9.5-63,25.8-88.3,48.9c-29.1,30.1-58.2,60.3-87.3,90.4C321.8,95,270.1,133.1,217.9,170.7
					C88,259-41.9,347.3-171.8,435.7C-326.3,549.2-483.3,659.2-642.8,765.8z M1507.9-287.2c-68.5,122.3-155.7,234.9-242.2,345.7
					c-45.8-2.5-90.6-0.5-137.5,11.5c-21.2,5.5-42.4,10.9-63.7,16.4c-48,16.6-93.8,37.8-137.4,63.7c-52.9,27.8-102.4,62.4-151.4,96.3
					c-67,39.6-134.3,78.9-201.8,117.6c-35.3,19.1-70.5,38.2-105.8,57.2C347,473.4,231.9,536.1,122.6,608.9
					c74.7-66.3,144.6-137.8,209.4-214.7c67.6-50.8,130.9-105.7,189.7-165c59.7-35.3,119.5-70.6,179.2-106
					C975-31.8,1251.9-182,1531.4-327.4C1523.6-314,1516-300.5,1507.9-287.2z"/>
				<path class="st147" d="M1067.1-461.1c-32.1-8.1-64.1-12.2-96.2-12.6C1158.8-615.9,1343-762.5,1523.2-914
					c21.2-28.2,18.4-54-8.4-77.2c-52.8-27.3-109.5-34.9-170.1-22.9c-107,5.3-213.4,16.3-319.1,33.2c-27.7,0.3-53.7,4.5-78.2,12.2
					c0.6-0.4,1.2-0.8,1.7-1.1c28.5-19.3,56.8-38.9,84.8-58.9H-1476c-3.4,9.3-6.8,18.6-10.1,27.9c-30.6,84.2-59.7,168.9-88.4,253.7
					c-29.4,18.4-58.8,36.9-88.1,55.3V903.6c4.2-2.1,8.3-4.3,12.5-6.5c-2.5,4-5,8-7.4,12c-1.7,1.2-3.3,2.4-5,3.7v1155.5
					c6.5-5.8,13-11.6,19.5-17.4c77.4-68.5,154.6-134.1,236.7-197.2c188.7-171.5,378-342.5,567.8-513
					c75.1-67.7,151.2-134.4,227.7-200.6c4.4-3.3,8.8-6.7,13.2-10.1c-71.8,154.9-143.8,309.8-216,464.5
					C-890.4,1758-966.9,1921.4-1043,2085c-7.9,17-15.6,34.2-23.6,51.2h871.3c61.2-80.4,126.9-157.2,197.7-229.7
					c34.6-38.1,71.1-74.4,108.9-109.6c-27.1,51.7-54.1,103.3-81.9,154.5c-21.8,37.4-43.5,74.8-65.3,112.2
					c-15.5,24.2-31,48.4-46.4,72.5H536c21-16.2,42-32.3,62.9-48.6c7.2-2.9,14.4-6,21.6-8.9c96.3-48.5,191.4-99.3,285.4-152.4
					c206.3-110.9,407.6-228.4,607.4-349.8c-174.4,133.9-350.8,265.4-526.2,398c-71.3,54-142.8,107.8-214.2,161.6h421.8
					c57.9-47.8,115.8-95.7,173.4-143.7c-21.6,30.4-42.7,61.3-63.1,92.5c-24.9,17.3-50.2,34.2-75.3,51.3h374.9V-805
					c-102,45.9-200.7,97.7-295.9,155.8C1226.9-588.1,1146.4-525.3,1067.1-461.1z M-1231.3-399.4c10.2-12.8,20.4-25.6,30.6-38.3
					c55.3-59.9,113.7-116.8,175.3-170.5c4.7-4.4,9.7-8.6,14.4-12.9c2-1.2,4.1-2.4,6.1-3.6C-1080.7-550-1156.2-474.9-1231.3-399.4z
					 M-692.2-560.2c-11.9,9.2-23.9,18.4-35.9,27.5c32.9-33.6,65.8-67.1,98.6-100.7C-650.3-609-671.3-584.6-692.2-560.2z
					 M397.5-602.7c125-88.3,253.8-171.9,382.2-255.7c-32.2,24.9-64.5,49.8-96.7,74.7c-119.6,97.9-228.1,207-325.7,327.3
					c-5.2,4.6-10.3,9.3-15.6,13.9c-24.9,17.9-48.6,36.7-71.3,56.1c-13.3,2.9-26.6,5.7-39.9,8.7c-6.1,0.6-12,1.6-17.9,2.4
					C274.4-450.8,336.2-526.6,397.5-602.7z M-375.3,1628.3c-125.3,148.8-237.6,306.7-341.8,469.8c12.3-28.6,24.6-57.2,37-85.7
					c147.7-342.4,293.8-685.4,438.1-1029.2c40.1-87.1,83.4-172.5,129.6-256.4C81.5,577.1,289.3,448.3,511.1,340.3
					c9-8,17.9-15.9,26.9-23.9c51.7-47.9,101.6-97.3,150.1-147.9c54.5-22.8,107.7-48.3,159.6-76.5c-17.8,29.1-35.7,58.2-53.5,87.3
					C690.6,348.8,592.9,521.7,498.9,696.4C192.4,993.2-101,1302.5-375.3,1628.3z M841.1,1476.9c-72.5,68.7-144.9,137.3-217.4,206
					c-39.9,27.9-79.4,56.4-118.5,85.4c52.2-100.6,103.2-202,156.7-301.7c23.6-38.7,47.1-77.3,70.7-116c14-20,28.4-39.6,43-59.2
					c22.8-14.8,45.6-29.6,68.7-44c102.7-67.1,168.6-112,215.2-151.8C984.5,1221.4,912.2,1348.8,841.1,1476.9z M1220.1,837
					c5.2-12.2,10.6-25,16.4-38.6c7-6.4,14.1-12.9,21.2-19.3C1245.2,798.3,1232.7,817.7,1220.1,837z"/>
				<path class="st147" d="M942.1,102c-79.7,45.1-154.1,97.9-222.9,158.5c-30.2,25.6-60.5,51.2-90.8,76.8
					C511,434.6,396.2,534.7,284,637.6c-76.9,68.8-153.8,141-224.9,216c-34.7,34.4-69.1,69.2-103,104.4
					c-132.1,100.3-262.4,202.8-390.5,307.9c-1.4,1.2-2.9,2.3-4.3,3.5c40.2-63.5,79.2-127.8,118.8-191.3
					c-14.4,21.7-28.7,43.4-43.1,65.1c37.3-59.5,77.4-117,119.9-173c59.8-70.4,121.8-138.8,186.3-205.2
					c118.6-117.5,242-230,370.2-337.5C477.5,290,641,151.6,803.8,12.6c149-131.3,300.9-259.3,455.8-384
					c19.3-20.5,28.7-44.7,28.1-72.6c-1.7-27.4-24-48.1-50.5-63.4c6.9-8.3,13.8-16.7,20.7-25c65-82.5,125.4-167.9,181.5-256.4
					c51.6-77,93.7-157.7,134.5-239.9h-467.3c-74.5,38.3-147.2,79.7-217.9,124.5c-5.5,3.8-11.1,7.4-16.7,11.2
					c54.9-44.8,109.4-90.1,163.7-135.7H622.9c-12.8,8.1-25.5,16.2-38.3,24.4C312.2-863.8,38-726.6-237.9-592.7
					c12.5-15.2,25.1-30.4,37.6-45.6c115.2-83.9,231.5-166.3,349.8-246.3c55.4-35.8,110.9-71.5,166.4-107.2
					c19.1-12.1,37.9-24.5,56.8-36.8H-835.8c-23.7,26.4-47.3,53-70.6,79.8c-138.4,153.7-273,309.9-407.3,467.2
					c-120.1,140.6-236.1,283.7-349.1,429V1445c37.5-37.6,74.9-75.1,112.4-112.7c104.1-105.7,208.2-211.5,312.2-317.3
					c-58.4,135.4-117.9,270.4-178.4,405c-81.8,184.1-164.2,368-246.2,552.1v164.2h372c1-1,2-1.9,3-2.9
					c27.6-18.5,55.1-36.9,82.7-55.1c-11.5,19.1-22.6,38.5-33.4,57.9h1150c61.3-52.3,122.7-104.5,183.6-157
					c73.1-28.6,144.8-60.2,215.2-95c-59.1,46.6-118.2,93.2-177.2,139.9c-47.3,37.5-94.7,74.8-142.1,112.2h480.7
					c10.1-9.7,20.3-19.4,30.3-29.1c75.1-50.6,153.1-97.1,234.5-139c205.9-109.3,411.5-219,617-329c85-45.4,168.5-92.8,251.1-141.6
					v-243.1c-204.6,140.5-422.6,262.8-639.1,384.8c100.6-106.7,199.9-214.6,299.2-322.3l7.5-7.5c71.9-43.9,144.6-86.3,218.4-127
					c38.1-25.1,76-50.5,114-75.9V780.8c-64.9,54.1-128.3,109.7-190.4,166.9c-42.6,29.5-85.2,58.9-128.1,88
					c-115.1,69-227.4,142-337,219.2c-87.3,61.4-175.3,121.7-264,181.1c136.1-128.8,270.1-259.8,401.7-393
					c79.7-80.3,159.3-160.5,239-240.8c89-92.4,181.9-180.4,278.7-264.4V252.4c-13.1,7.1-26,14.4-39,21.7c13.1-14,26-28.1,39-42.3
					v-646.8c-157.6,118.4-313.8,238.3-468.8,360.3C1070.5-3.2,1006.1,49.2,942.1,102z M333.6-731.6c-19.5,15.5-38.7,31.2-58.3,46.5
					c-13.4,0.3-26.6,1.2-39.8,2.8C268.2-698.8,300.8-715.3,333.6-731.6z M125.1-192c33.9-36.3,67.3-73.1,100.2-110.2
					c287-191.2,583.7-365.5,890-523.1c-1,1.6-1.9,3.3-2.9,4.9c-47.6,75.2-98.2,148.5-152.1,219.6c-7.2,9.5-14.6,18.9-21.8,28.4
					c-45.4,4.8-90.5,15.7-133.8,25.9c-59.1,22.6-116,49.7-170.7,81.2c-91.4,47.9-177.2,108.5-263.9,163.8
					C304.5-257.8,237-217.4,167.5-180c-34.3,17.4-68.6,34.9-102.9,52.3C85-148.9,105.2-170.3,125.1-192z M-571.4-196.4
					c121.4-80.4,246.2-155.8,374.3-226.1c87.2-52.6,174.5-105.3,261.6-157.9c-64.6,65.3-129.2,130.6-193.6,196
					C-244-303.9-360.9-226.2-479.9-151.3c-84,47.9-167.9,95.8-251.9,143.8C-678.3-70.5-624.9-133.4-571.4-196.4z M-1025.2,339.1
					c59.2-27.5,118.5-55.1,177.7-82.6c72.4-36.1,144-73.5,214.9-111.9c-3.1,3.5-6.1,7.1-9.2,10.6c-16.5,10.7-32.8,21.8-48.7,33.4
					c-16.3,10.9-32.6,21.8-48.8,32.7c-30,25.8-57.7,53.8-83.1,83.8c-80.7,67.4-161.1,135.2-240.9,203.6
					c-57.9,27.9-115.9,55.4-174.3,82.2C-1166.8,506.9-1096.1,422.9-1025.2,339.1z M-1195,1792c-23.6,23.1-31.2,48.5-23.1,76.3
					c-12.9,8.5-25.8,17-38.7,25.5c-34.7,25.5-69.1,51.3-103.5,77.2c5.7-15.2,11.3-30.5,17-45.7c59.1-158.6,117.6-317.3,175.5-476.3
					c77.9-212.8,151.9-426.9,227.3-640.6c53.6-37.6,106.3-76.3,158.4-115.4c37.7-28.2,74.6-57.3,110.8-87.3
					c68.8-55.7,117.9-110.6,171.6-173.9c115.8-62.8,231.7-125.7,347.5-188.5C1.9,129.1,168,37.3,346.1-31.8
					c85-36.2,166.1-83.5,246-131C478.2-40,359.2,78.6,241.3,197.1c-35,35.2-70.5,69.9-106.1,104.5C65.5,361.6-1.1,424.8-64.4,491.5
					c-5.4,5.7-10.5,11.6-15.9,17.4c-69.2,66.9-137.7,134.4-204,203.9c-124.2,115.6-233.4,243.5-327.4,383.7
					c-38.9,50-64.9,106.4-78.5,168.9c-0.4,0.5-0.8,0.9-1.1,1.4C-882.9,1419.7-1051,1594.7-1195,1792z M-588.6,1875.4
					c-17.2,30-35.4,59.1-54.2,87.7c-16.3,1.5-32.6,2.9-48.9,4.2c2.9-4.7,5.7-9.4,8.6-14.1c21.9-32.3,43.8-64.5,65.7-96.8
					c45.3-60.6,91.4-120,138.6-178.4C-514.5,1744.2-550.9,1810-588.6,1875.4z M379.7,1287.6c-117.5,102.7-238.2,201.2-360.9,297.3
					c59.8-61.5,126.7-117.9,201-169.3c75.9-63.8,152.5-126.8,229.7-189.1C426.2,1246.8,403.1,1267.3,379.7,1287.6z M1291.3,198.5
					c-129.8,153-280.6,289.5-427.2,426.6c-178.8,167.3-370.4,322.2-558,479.8c-50.3,42.5-100.2,85.4-150,128.5
					c18.3-35.4,37-70.5,56.4-105.3c89.6-85.8,179.4-171.4,269.6-256.6c284.1-270,583.3-524.3,891.3-768.3
					C1346.5,135.3,1319.3,167.2,1291.3,198.5z"/>
				<path class="st147" d="M1604.7-867.6v-161.1h-525.1c-28.2,9.9-56.1,20.3-83.9,31.3c13.4-10.3,26.6-20.9,40-31.3h-2698.3v2844.8
					c46.5-45.6,92.8-91.4,139.7-136.7c72.1-69.7,144.7-137.1,220.8-202.6c90.1-85.6,177.2-173.9,261.3-264.8
					c-16.3,37-32.7,74-48.9,111.1c-108.1,245.4-217.7,490.1-325.8,735.5c-9.6,26.1-19.9,51.9-30.4,77.6h3050.6V436.7
					c-12.4,15.7-24.6,31.7-36.4,48.1c-13.6,10.7-27.3,21.5-40.9,32.2c-82.9,65.5-166.9,129.9-251,194
					c40.2-48.9,80.4-97.8,120.7-146.7c69.3-74.1,138.5-148.3,207.7-222.5V-689.4c-40.5,2.4-79.6,12.1-117.4,29.5
					c-15.5,12.1-30.8,24.3-46.2,36.4c14.6-19.6,29-39.4,43.2-59.3C1528.5-742.2,1567.9-804.1,1604.7-867.6z M319.2-17.4
					c-34.7,56-69.4,112.1-104,168.1c-80,134-137.8,276.7-173.7,428c-227.4,214.1-442.3,440.2-656.7,666.6
					c-27.8,26.6-55.6,53.3-83.3,80c-24.5,24.6-48.8,49.3-73.1,74.1c42.1-115.4,84-230.9,125.4-346.6
					c59.3-173.8,120.8-346.7,184.5-519c7.8-16.8,15.8-33.6,23.6-50.4c90.7-109.9,183.2-218.4,277.4-325.6
					c159.7-69.5,316-145.9,469-229.5c21.2-7.4,42.4-14.8,63.5-22.2C354.1-68.6,336.5-43,319.2-17.4z M584,1126.2
					c-2.6,22-3.5,42.9-2.9,62.8c-13.9,7.6-27.9,15-42,22.3C553.9,1182.8,568.9,1154.5,584,1126.2z M1117.6,1856.9
					c-7,2.9-14,5.9-21.1,8.9c22.7-22.9,45.3-45.8,67.9-68.8c1.4,10.4,3.2,20.8,5.3,31.1C1152.4,1837.7,1135,1847.4,1117.6,1856.9z
					 M1304.8,1271.4c-74.4,65.4-149.7,129.7-226.2,192.7c-154.5,130.3-311.9,257.2-469.1,384.4c-15.3,12.4-30.8,24.7-46.1,37
					c33.8-28.6,67.5-57.3,101-86.1c95.3-82,188.8-166.1,281.4-251.2c10.2-3.2,20.5-6.4,30.7-9.7c-1.4-4.9-2.8-9.8-4.2-14.7
					c58.1-53.6,115.9-107.4,173.6-161.4C1199,1332.4,1252,1302,1304.8,1271.4z"/>
				<path class="st147" d="M1054.5-184.5c-55-4.3-108.3,3.6-159.7,24.3c-12.7,8.5-25.1,16.9-37.6,25.3
					c211.5-171.7,419.9-346.8,625.4-525.3c32.7-18.3,46.3-44.9,41-79.9c-14.2-32.6-40.2-48.2-77.7-47
					c-77.8,7.1-154.1,22.2-228.8,45.1c-76,18.7-149,45-219.1,78.8c-77.8,66-155.6,131.9-233.4,197.9
					C631.8-345.1,490.8-237.1,341.8-141c-11.7,4.1-23.6,7.9-35.3,12.1C237-114.4,178.4-82.5,130.9-33.4
					c-10,11.1-19.8,22.3-29.7,33.4C80.2,11.1,59,22,37.7,32.8c113.6-141.2,225.7-283.4,337-426.3c19-13.6,37.8-27.2,56.9-40.7
					c162.4-115,332.4-220.6,497.9-331.3c112.6-76.2,221.3-157.5,326-243.8c7.7-6.4,15.3-12.9,23-19.4H49.1
					c-135,163.8-273.5,325-411.2,486.5c-57.5,68.3-114.9,136.6-172.4,205c-1.7,2-3.5,4-5.2,6C-725-187-911.4-44.1-1096.8,100
					c-106.6,83-212.7,166.6-318.3,250.8c2.3-2.4,4.6-4.8,6.9-7.2c258.4-265,508.4-538.2,764.9-805.1
					c95.4-94.5,190.8-189,286.2-283.5c82.6-80.3,167.5-157.9,254.5-233.2c22-16.8,43.9-33.7,65.9-50.5h-1626.1v208
					c31.1-25.9,63.2-50.5,96.5-73.5c0.4,13.8,8.9,26.8,25.7,39c41,17.1,83.3,26,126.8,26.8c-23.8,64.6-46.4,129.7-68.2,195.1
					c-17.2,24.8-34.4,49.6-51.6,74.4c-43.2,21.9-86.2,44.2-129.2,66.7v2628.5h115.9c12.6-10.3,25.2-20.7,38.1-31
					c186.5-170.7,372.9-341.3,559.4-511.9c5.9-5.4,11.8-10.6,17.7-16c50.9-38.2,101.8-76.4,153-114.1
					c48.8-37.9,97.8-75.6,146.8-113.3c-30.8,65.5-61.2,131.1-90.8,197.1c-90.9,196.6-182.6,392.8-274,589.2h356.4
					c94.1-221.4,188.6-442.6,280.9-664.8c68.7-178.7,146-353.8,232-525.2c12.1-22.8,24.3-45.6,36.4-68.4
					c120.9-75,241.6-150.2,362.5-225.2c142.8-120.4,300.3-214.8,472.7-283c31.2-13.8,61.9-29.5,92-46.2
					c-23.2,78.2-46.4,156.3-69.7,234.5c-96,168.6-208.3,326.5-337.3,473.4c14.1-17.9,28.2-35.8,42.3-53.7
					c-40.9,47.6-82,95.1-123,142.7c-132.1,130.5-260.3,264.7-384.5,402.5c-104,153.9-228.6,289.2-373.8,406
					c-70.7,66.6-138.6,135.8-204.1,207.4H-57c35.1-37,71.1-73.2,108.4-108.2c9.8-9.1,19.7-18,29.6-27
					c-24.1,45.2-48.5,90.3-73.2,135.2h988.6c34.9-20.8,69.8-41.8,104.4-63.1c-28,21.1-56.1,42.1-84.2,63.1h423.7
					c55.1-45.3,109.8-90.9,164.4-136.7V70.7c-55.1,46.3-109.9,92.8-164.5,139.4c36.9-41.7,73.4-83.8,109.4-126.2
					c18.4-12,36.7-24.2,55.1-36.4v-606c-21.2,13.3-42.3,26.7-63.2,40.5C1374.8-412.9,1212.5-301.7,1054.5-184.5z M-1094-855.6
					c33.7-3.8,67.3-8,100.9-12.6c-7.6,10.6-14.8,21.4-21.5,32.5c-18.3,20.8-36.6,41.5-54.9,62.2c-37.5,12.8-74.2,27.2-110.4,43
					C-1151.2-772.2-1122.5-813.9-1094-855.6z M-1384,1426.7c-33.4,9.7-66.8,19.4-100.1,29.3c18.5-32.6,36.9-65.1,55.3-97.7
					c2.7-1.2,5.5-2.4,8.3-3.7c46.6-22.7,93-45.7,139.3-68.9C-1315.1,1333-1349.4,1380-1384,1426.7z M-841,1137.8
					c-11.5,6.5-22.9,13-34.4,19.6c41-49.8,81.9-99.6,122.7-149.6c8.2-4.5,16.5-9.1,24.7-13.6C-765.6,1042.1-803.3,1090-841,1137.8z
					 M-475.6,673.1c-3.4,2.2-6.8,4.4-10.3,6.6c54.7-67.7,109.4-135.4,164.1-203.1c4.5-2.7,8.9-5.5,13.4-8.2
					C-365,536-420.6,604.3-475.6,673.1z M1462.1,875.1c-130.5,177.3-264.9,351.5-402.8,523.6c-18.2,20.2-36.4,40.5-54.7,60.7
					c-98.5,91.6-198.3,181.8-299.7,270.4c-50.3,44.1-99.7,88.9-148.6,134.4c6.6-13,13.3-25.9,19.9-38.9
					c44.6-88.9,93.6-175.4,146.8-259.6c41.8-56.8,85.3-111.7,130.5-165.2c61.3-50.8,122.6-101.7,184-152.5
					C1185.4,1130.5,1326.9,1006.1,1462.1,875.1z"/>
				<path class="st147" d="M1400.8,143c-176.9,107.3-353,215.8-528.3,325.7c-40.2,21.2-80.4,42.4-120.6,63.6
					c-42.2,24.6-81.4,53.2-117.7,85.9c-234,181.7-457.5,377.2-669.7,582.8c-9.6,10-19.1,20.1-28.6,30.2
					c-37.9,35.9-75.7,71.9-113.2,108.3c-78.9,57.5-156.9,115.9-234.4,175.2c41.8-73.3,83.2-146.9,123.9-220.7
					c18.2-36.2,39.2-70.6,62.8-103.3c27.8-30.5,55.7-61,83.5-91.5c33.7-25.8,67.8-51.3,102.6-75.9
					C84.4,913.7,206.8,803.4,328.4,692.3c54.1-47.4,108.1-94.7,162.2-142.1c40.6-35.6,80.7-71.8,120.5-108.2
					c224-114.6,423.6-261.4,598.6-440.6c19.2-15.9,30.2-36.3,33.2-61.1c6.3-24.2,3.4-47.1-8.6-68.7c-14-9.4-28.1-18.8-42.1-28.2
					c57.3-68.9,111.9-139.7,163.5-212.8c93-125.3,162.2-262.9,229.1-402.4c15.4-32-0.3-77-18.9-104.2c-32.1-46.8-102.7-18.1-142,2.9
					C1205.6-757.8,988.4-640.7,772-522.1c93.8-76.5,186.9-153.8,280.1-230.4c3.1-9.3,6.1-18.6,9.2-27.9c3-26.1,1.1-51.9-5.7-77.4
					c-3.6-21.1-16-33.7-37.1-37.8c-22.4-4.3-44.3-2.7-65.8,4.6c-160.3,86.8-320.7,173.6-481,260.4C219.9-513.5-28-388.9-272-257.3
					c13.3-16.1,26.5-32.2,39.7-48.4c13.2-9.9,26.4-19.7,39.6-29.6C17.3-492.2,246.1-626,465-770.6c113-76,221.6-157.5,325.8-244.6
					c5.3-4.4,10.5-9,15.8-13.5H355.6c-6.4,2.4-12.9,4.7-19.3,7.1c1.9-2.4,3.7-4.7,5.5-7.1H91.4c-20.6,26.4-41.1,52.8-61.6,79.3
					c-6,1-12,2-17.9,3c24.9-27.2,49.4-54.8,74.1-82.3h-257.7c-38.9,43.7-78.2,87-118,129.9c-63.8,11.8-127.1,26.3-189.7,43.7
					c56.9-56.2,111.9-114.1,165-173.6h-242.7c-43.3,37.3-86,75.3-127.9,114.2C-812-786.7-927-666.4-1049.4-534.5
					c-212.9,229.4-417.8,467.2-613.3,711.8v896.6c31.1-21.5,62.3-42.8,93.6-64c-26.9,42.4-56,82.5-87.6,120.2l-6,2.7v560.5
					c49.8-54.4,99.3-108.9,148.4-163.9c39.8-44.4,79.6-88.8,119.4-133.2c27-15.1,54-30.3,80.8-45.7
					c-58.5,131.9-116.9,263.8-175,395.8c-57.8,129.7-115.7,259.4-173.6,389v1h345.6c68.6-196,135.8-392.4,201.1-589.5
					c25.6-80.4,51.2-160.8,76.8-241.3c12.8-50.2,27.9-99.5,44.8-148.1c44.2-29.7,87.6-60.3,131.3-91.3
					c98.4-69.9,194.5-147.3,282.4-229.4c22.8-27,45.6-54.1,68.4-81.1c232.4-125.8,460.2-259.1,683.4-400.1
					c40.4-17.2,80.8-34.4,121.1-51.5c47.9-22.8,95-47,141.3-72.6C544.9,169.8,655.1,106,766.7,44.8c-3.2,3.4-6.3,6.8-9.5,10.3
					c-80.1,82.5-161.8,163.3-245.4,242.4c-67.3,62.7-135.5,124.5-204.1,185.9c-2.5,1.4-4.9,2.8-7.4,4.2
					c-60.2,39.5-120.5,79-180.7,118.5C8.6,684.2-92.7,773.1-184.2,872.7c-38.6,46.6-77,93.3-115.4,140l-57.5,44.6
					c-230.1,171.2-410.3,382.8-540.9,634.9c-115.6,152.2-241.7,295.9-378.4,430.9c-5.7,4.1-10.6,8.6-14.9,13.2h2313.3
					c9.7-5.2,19.4-10.2,29-15.4c174.9-96.6,349.1-194.2,522.7-292.9c10.4-6.1,20.6-12.3,30.9-18.4v-195.9
					c-200.1,123.3-408,235.6-612.1,350.3c-20.9,11.1-41.8,22-62.7,33c45-48.3,89.8-96.9,134.4-145.6
					c71.9-80.6,143.2-161.7,214.1-243.2c1.4-0.8,2.7-1.7,4.1-2.5c110.8-57.3,218.2-120.1,322.2-188.3v-332.7
					c-72.1,53.7-141.9,110.3-209.3,169.9c-104.1,91-208.8,181.2-314.2,270.8c-95.7,61.4-190.3,124.3-284,188.7
					c-107.1,70.9-215.3,140-324.6,207.6c75.4-73.5,150.7-147.1,225.7-221c225.1-220.5,431-462.3,642.9-694.8
					c85.2-93.5,172.1-176.1,263.4-254V-13.5c-46.1,34.8-92.2,69.8-137.9,105.2C1444.7,108.7,1422.8,125.9,1400.8,143z M-591.2-336.7
					C-456.8-460.5-327-588.6-201.3-720.9c8.9-1.2,17.9-2.4,26.8-3.6c12.5-2.7,25-5.6,37.4-8.4c-66.1,84.9-133,169-200.4,252.8
					c-4,2.8-7.9,5.6-11.9,8.4C-543.8-326.3-737.6-180.1-930.8-33.1c-1.3,0.9-2.5,1.9-3.7,2.8C-818.7-130.9-704.2-233-591.2-336.7z
					 M-1402.5,727.3c-5.1,3-10.2,5.8-15.4,8.8c60.7-52.6,121.6-105.1,182.8-157.3c17.7-15.6,35.7-30.9,53.6-46.2
					c-39.3,46.4-78.5,92.9-117.7,139.3C-1333.5,690.3-1368,708.8-1402.5,727.3z M-1330.9,987.2c-1.7,0.8-3.4,1.5-5.1,2.3
					c56-67,112.2-133.9,168.7-200.5c9.6-11.4,19.2-22.8,28.9-34.1c79.3-43.7,158.2-88,236.9-132.8
					C-1047.1,741.1-1190.2,862.8-1330.9,987.2z M-861.2,437.3c-3.3,1.7-6.5,3.5-9.7,5.2c95.8-110.6,191.9-220.8,287.6-331.4
					c197.9-115,396.3-228.9,595.5-341.7c108.1-50.3,215.6-101.5,322.8-153.6c-7.8,6.1-15.6,12.4-23.4,18.5c-0.9,0.7-1.7,1.3-2.6,1.9
					c-22.8,4.2-43.4,13.4-61.8,27.7c-23.5,23.9-47.1,47.7-70.6,71.5C104.8-210.7,33.2-157-38.4-103.4
					C-299.6,95.7-573.9,275.9-861.2,437.3z M697.2-127.1C563.4-51.9,432.3,27.8,299.4,104.5c8.7-4.7,17.3-9.4,25.9-14.2
					c-70.6,40.6-143.6,76.8-218.9,108.4c-76.9,49.5-154.4,98-232.5,145.6c41.4-36.2,81.9-73.3,121.4-111.5
					c111.8-89.1,212.8-188,303.3-296.1c314.5-193,642.6-365.1,970.6-535.5c-29.4,49.6-60.4,98.4-93.3,146
					c-54.8,84.8-116.7,165.2-181.9,243.1c-33.3,0.8-66.6,2.8-99.7,6.1C827.5-182.1,758.5-161.5,697.2-127.1z M10.5,1854
					c0.5-1,1-2.1,1.5-3.1c36.7-30.7,73.8-60.8,111.2-90.5C85.7,1791.7,48.1,1822.8,10.5,1854z M1597,244.8
					c-97,134.2-215.4,254.3-330.1,373.5c-95.1,92.9-193.3,182.6-295,268.7c-59.2,48.8-118.3,97.6-177.5,146.4
					c-128.4,106.3-257.8,211.5-388,315.6c-73.5,49-145.9,99.6-217,151.7c13.4-25.3,26.8-50.6,40.4-75.8
					c83.7-81.6,167.7-163,252.1-243.9C698.6,971.8,934,779.5,1165,585.9c136.5-114.4,276.3-224.8,417.9-333
					C1587.5,250.2,1592.3,247.5,1597,244.8z"/>
			</g>
		</g>
	</g>
</g>
<g id="Colores_base">
</g>
<g id="Sombras">
</g>
<g id="lineas_y_contornos">
	<g>
		<g id="XMLID_18_">
			<g>
				<path class="st148" d="M230.4,146.8c46.2,29.3,51.3,92.9,51.9,107.9c0,0-35.8-82-109.8-71.1c-11.2-27.5-24.1-51.2-24.1-51.2
					c-0.2-0.4-0.5-0.8-0.7-1.2h0C147.6,131.1,184.2,117.6,230.4,146.8z"/>
				<path class="st149" d="M172.3,300.7c0,0-16-7.6-24.7-15.2c30.6-10.3,44.9-28.3,44.9-28.3s4.7,12.2,7.4,24.6
					C199.9,281.8,189,296.5,172.3,300.7z"/>
				<path class="st150" d="M188.3,237c0,0,3.7,6.3,4.2,20.2c0,0-14.3,18-44.9,28.3c0,0-5.8-2.7-9.9-7.2
					C187.7,261.7,188.3,237,188.3,237z"/>
				<path class="st148" d="M103.2,369.2c-13-7.5-67-41.5-71.5-96C27.2,219.3,53.4,195,54,194.4c12.4,17.9,24.8,32.6,36.1,44.3
					c-0.7,0.9-1.3,1.8-1.9,2.7v0c-7.8,11.5-12,23.3-13.8,34.9C67,324.9,103.2,369.2,103.2,369.2z"/>
				<path class="st151" d="M90.1,238.7C78.9,227,66.5,212.3,54,194.4c-1.2-1.8-2.5-3.6-3.7-5.4c0,0-18-28.7-30.7-67.3
					c0,0-0.2-0.9-0.7-2.5c0,0,67.3-2.1,73.5-55.3c13.5,13,27.8,28.7,42.5,47.8c0,0,7.8,11.4,12.6,19.4c0.3,0.4,0.5,0.8,0.7,1.2
					c0,0,12.9,23.8,24.1,51.2c7.4,18.1,14.1,37.8,15.9,53.4c0,0-0.7,24.7-50.7,41.3C137.7,278.3,117.1,266.8,90.1,238.7z"/>
				<path class="st152" d="M88.2,241.5c-5.1,38.8,26.5,59.2,26.5,59.2C89,299,74.5,276.4,74.5,276.4C76.2,264.8,80.4,253,88.2,241.5
					z"/>
				<path class="st148" d="M92.5,63.9C86.3,117,19,119.2,19,119.2C15.6,106.1,0.6,44.4,8.3,7C8.3,7,44.8,17.9,92.5,63.9z"/>
			</g>
		</g>
		<circle class="st153" cx="86.6" cy="135.7" r="16.5"/>
		<circle cx="86.6" cy="135.7" r="11.7"/>
		<circle class="st153" cx="109.6" cy="173.9" r="11.7"/>
		<circle cx="109.6" cy="173.9" r="8.3"/>
		<circle class="st153" cx="131.8" cy="207.3" r="8.3"/>
		<circle cx="131.8" cy="207.3" r="5.8"/>
		<g id="XMLID_17_">
			<g>
				<path class="st154" d="M207.2,317.6c-1.4-5.4-17.9-63-65.6-84.3c0,0,5-7.7,10.7-11.3c0,0,53.3,35.3,55,96
					C207.3,318,207.3,317.9,207.2,317.6z"/>
				<path class="st152" d="M141.7,233.3c47.7,21.3,64.1,78.9,65.6,84.3l-1,0.3c-3.3-11-15.5-39.9-58.6-76.4L141.7,233.3z"/>
			</g>
		</g>
		<path class="st183" d="M19,31c0,0-0.4,52,12.2,79.3c0,0,2.5,1.3,10-2.2C41.2,108.2,21.8,84.8,19,31z"/>
		<path class="st183" d="M37,124c0,0,32.6,92.3,107.6,142.3c0,0,4.4,2,11.1,0C155.7,266.3,87,231.7,37,124z"/>
		<path class="st245" d="M147.6,131.1c0,0,18.7,36.7,24.8,52.5c0,0,21.5-4.9,43.2,3.9c0,0-81.8-67.4,32.5-25.3
			C248.1,162.2,215.2,119.5,147.6,131.1z"/>
		<path class="st183" d="M240.7,165.7c0,0,2.8-1.2,9.7,3c0,0,15.3,19.3,25.3,56.7C275.7,225.3,262,186,240.7,165.7z"/>
		<path class="st183" d="M53,207.3c0,0-37.2,47.7,2.7,110.7c0,0-31.3-52.5,0-102.4C55.8,215.6,60.2,206.7,53,207.3z"/>
		<path class="st245" d="M31.9,17.7c0,0,37.2,21.7,60.6,46.2c0,0,0.2,13.8-14.3,31.3C78.2,95.2,88.2,57.2,31.9,17.7z"/>
		<path class="st245" d="M76.9,224.2c0,0,8.4,9.4,13.2,14.6c0,0-26,31.3-13.2,76.6c0,0,6.9,25.5,16.6,39.7
			C93.5,355,34.2,294.1,76.9,224.2z"/>
		<path class="st246" d="M78.2,95.2c0,0,77.5,27.5,104,155.8c0,0,4.9-7.1,6.2-13.9c0,0-4.6-32.6-26.9-81.6
			C143.1,115.3,96.3,67,92.5,63.9C92.5,63.9,91.3,80.7,78.2,95.2z"/>
		<path class="st247" d="M87.3,242.7c0,0-11.7,14.1-12.7,33.2c0,0,5.6,9.1,12.4,13.7C87,289.6,73.6,270.6,87.3,242.7z"/>
		<path class="st183" d="M152.7,226.9c0,0,17.8,9.5,31,31.8c0,0-14.3-19-33.8-29.3C149.9,229.4,150.2,225.4,152.7,226.9z"/>
		<path class="st183" d="M84,128c0,0,7.5-2.6,11.2,5.2c0,0-0.8,0-1.1,1.5C94,134.7,92.7,128.1,84,128z"/>
		<circle class="st183" cx="95.3" cy="137.1" r="1"/>
		<path class="st183" d="M108.1,168.6c0,0,5-1.7,7.4,3.4c0,0-0.5,0-0.7,1C114.7,173.1,113.9,168.7,108.1,168.6z"/>
		<circle class="st183" cx="115.6" cy="174.7" r="0.7"/>
		<path class="st183" d="M130.1,203.4c0,0,3.8-1.3,5.6,2.6c0,0-0.4,0-0.6,0.8C135.1,206.8,134.4,203.5,130.1,203.4z"/>
		<circle class="st183" cx="135.7" cy="208" r="0.5"/>
		<g>
			<path class="st156" d="M8.3,7c0,0,68.5,19.5,139.3,124.1c0,0,8.6-1.9,21.5-1.9c35.5,0,103.4,14.8,113.1,125.5
				c0,0-32.2-72.4-95.1-72.4c-4.7,0-9.6,0.4-14.7,1.3c0,0,9.1,19,15.9,53.4c0,0,2.9,8.6,4.2,20.2c0,0,5,13,7.1,23.3
				c0,0,9.4,25.4,7.8,37.6c0,0-8.1-18.4-15.1-28.2c0,0-6.2,6.4-19.9,10.9c0,0-12.3-6.5-24.7-15.2c0,0-5.2-2-9.9-7.2
				c0,0-28.2-17.6-47.5-39.6c0,0-3.3,1.5-2.5,11.2c0.8,9.7,0.3,28.5,27,50.8c0,0-0.1,0-0.3,0c-2.5,0-22.6-0.8-40-24.3
				c0,0-8.5,42.7,27.8,91.7c0,0-119.9-66.9-48.3-173.6C54,194.4-2.3,117.7,8.3,7 M8.3,0C6.9,0,5.6,0.4,4.4,1.2c-1.7,1.2-2.8,3-3,5.1
				c-2.5,25.8-1.6,52,2.7,77.8c3.4,20.6,9,41,16.6,60.6c9.7,25.1,20.1,42.4,25,49.8c-19.4,30.6-25.7,61.1-18.6,90.6
				c5.6,23.2,19.8,46,41.1,65.8c15.9,14.9,30.2,22.9,30.8,23.2c1.1,0.6,2.2,0.9,3.4,0.9c2,0,3.9-0.8,5.3-2.4
				c2.2-2.5,2.3-6.1,0.4-8.8c-17.7-23.8-24-46-26.2-60.3c-0.5-3.7-0.9-7-1-10c15.5,13.3,30.3,14.2,33.7,14.2c0.4,0,0.5,0,0.5,0
				c2.9-0.1,5.4-2,6.3-4.8c0.9-2.7,0.1-5.8-2.1-7.6c-20.9-17.4-23.4-32-24.2-41.5c16.4,15.7,34.3,27.4,38.2,30c4.4,4.6,9.1,7,11,7.9
				c12.4,8.6,24.4,14.9,24.9,15.2c1,0.5,2.1,0.8,3.3,0.8c0.7,0,1.5-0.1,2.2-0.4c6.9-2.3,12.2-5,15.9-7.4
				c5.4,9.2,10.5,20.7,10.5,20.9c1.1,2.6,3.7,4.2,6.4,4.2c0.3,0,0.6,0,1-0.1c3.1-0.4,5.5-2.9,6-6c1.8-12.9-6.3-36-8-40.4
				c-1.9-9.1-5.8-19.9-7-23c-1.2-10.4-3.6-18.3-4.2-20.3c-4.3-21.4-9.4-36.9-12.7-45.8c1.6-0.1,3.2-0.1,4.7-0.1
				c23.9,0,46,11.3,65.7,33.5c15.1,17.1,23,34.5,23.1,34.7c1.1,2.6,3.7,4.1,6.4,4.1c0.6,0,1.2-0.1,1.8-0.2c3.3-0.9,5.5-4,5.2-7.4
				c-4.4-50.4-21.1-87.2-49.6-109.2c-24.2-18.8-51.7-22.7-70.5-22.7c-7.9,0-14.2,0.7-18.3,1.3c-36.3-52.6-71.8-83-95.4-99.4
				C28.8,5.7,11,0.5,10.3,0.3C9.6,0.1,9,0,8.3,0L8.3,0z"/>
		</g>
	</g>
</g>
<g id="Astronauta_Base">
</g>
<g id="Astronauta_Sombras">
</g>
<g id="Astronauta_Line">
</g>
<g id="informacin">
</g>
<g id="Reticula" class="st0">
</g>
</svg>
